<?xml version="1.0" encoding="UTF-8" standalone="no"?>
<!-- Generator: Adobe Illustrator 19.0.1, SVG Export Plug-In . SVG Version: 6.00 Build 0)  -->

<svg
   xmlns:dc="http://purl.org/dc/elements/1.1/"
   xmlns:cc="http://creativecommons.org/ns#"
   xmlns:rdf="http://www.w3.org/1999/02/22-rdf-syntax-ns#"
   xmlns:svg="http://www.w3.org/2000/svg"
   xmlns="http://www.w3.org/2000/svg"
   xmlns:sodipodi="http://sodipodi.sourceforge.net/DTD/sodipodi-0.dtd"
   xmlns:inkscape="http://www.inkscape.org/namespaces/inkscape"
   version="1.1"
   id="Layer_1"
   x="0px"
   y="0px"
   width="286px"
   height="94px"
   viewBox="-816 494 286 94"
   style="enable-background:new -816 494 286 94;"
   xml:space="preserve"
   sodipodi:docname="japansticks.svg"
   inkscape:version="0.92.4 (5da689c313, 2019-01-14)"><metadata
   id="metadata3283"><rdf:RDF><cc:Work
       rdf:about=""><dc:format>image/svg+xml</dc:format><dc:type
         rdf:resource="http://purl.org/dc/dcmitype/StillImage" /><dc:title></dc:title></cc:Work></rdf:RDF></metadata><defs
   id="defs3281" /><sodipodi:namedview
   pagecolor="#ffffff"
   bordercolor="#666666"
   borderopacity="1"
   objecttolerance="10"
   gridtolerance="10"
   guidetolerance="10"
   inkscape:pageopacity="0"
   inkscape:pageshadow="2"
   inkscape:window-width="1920"
   inkscape:window-height="1017"
   id="namedview3279"
   showgrid="false"
   inkscape:zoom="2.1771881"
   inkscape:cx="143"
   inkscape:cy="47"
   inkscape:window-x="1912"
   inkscape:window-y="-8"
   inkscape:window-maximized="1"
   inkscape:current-layer="Layer_1" />
<style
   type="text/css"
   id="style3224">
	.st0{fill:#C1272D;}
	.st1{fill:#CF2A32;}
	.st2{fill:#E02D39;}
	.st3{fill:#3ED8D2;}
	.st4{fill:#30D5CD;}
	.st5{fill:#1FD2C6;}
</style>
<g
   id="g3276">
	<g
   id="g3238">
		<g
   id="g3236">
			<g
   id="g3232">
				<path
   class="st0"
   d="M-769,586.5c-25.1,0-45.5-20.4-45.5-45.5s20.4-45.5,45.5-45.5s45.5,20.4,45.5,45.5S-743.9,586.5-769,586.5z      "
   id="path3226"
   style="fill:#ffffff;fill-opacity:1" />
				<g
   id="g3230">
					<path
   class="st1"
   d="M-769,497c24.3,0,44,19.7,44,44s-19.7,44-44,44s-44-19.7-44-44S-793.3,497-769,497 M-769,494       c-26,0-47,21-47,47s21,47,47,47s47-21,47-47S-743,494-769,494L-769,494z"
   id="path3228"
   style="fill:#000000;fill-opacity:1" />
				</g>
			</g>
			<circle
   class="st2"
   cx="-769"
   cy="541"
   r="27.3"
   id="circle3234"
   style="fill:#000000;fill-opacity:1" />
		</g>
	</g>
	<g
   id="g3256">
		<g
   id="g3246">
			<path
   class="st3"
   d="M-673,586.5c-25.1,0-45.5-20.4-45.5-45.5s20.4-45.5,45.5-45.5s45.5,20.4,45.5,45.5S-647.9,586.5-673,586.5z"
   id="path3240"
   style="fill:#ffffff;fill-opacity:1" />
			<g
   id="g3244">
				<path
   class="st4"
   d="M-673,497c24.3,0,44,19.7,44,44s-19.7,44-44,44s-44-19.7-44-44S-697.3,497-673,497 M-673,494      c-26,0-47,21-47,47s21,47,47,47s47-21,47-47S-647,494-673,494L-673,494z"
   id="path3242"
   style="fill:#000000;fill-opacity:1" />
			</g>
		</g>
		<circle
   class="st5"
   cx="-673"
   cy="541"
   r="27.3"
   id="circle3248"
   style="fill:#ffffff;fill-opacity:1" />
		<g
   id="g3254">
			<path
   d="M-690.9,527.5h4.6v22.4h13.4v4h-18V527.5z"
   id="path3250"
   style="fill:#ffffff;fill-opacity:1" />
			<path
   d="M-664.1,538.8c2.8,0.1,5.7-0.9,5.7-4.1c0-2.2-1.7-3.7-4-3.7c-2.9,0-4.4,2.6-4.3,5.3h-4.2c0.2-5,3.4-8.8,8.6-8.8     c4,0,8.2,2.3,8.2,6.9c0,2.6-1.1,4.7-3.7,5.5v0.1c3,0.6,4.7,3.1,4.7,6.5c0,4.9-4.3,7.9-9.2,7.9c-6,0-9-3.6-9.1-9h4.2     c-0.1,3.1,1.6,5.5,4.9,5.5c2.8,0,5-1.7,5-4.6c0-4-3.4-4.5-6.8-4.4L-664.1,538.8L-664.1,538.8z"
   id="path3252"
   style="fill:#ffffff;fill-opacity:1" />
		</g>
	</g>
	<g
   id="g3274">
		<g
   id="g3264">
			<path
   class="st3"
   d="M-577,586.5c-25.1,0-45.5-20.4-45.5-45.5s20.4-45.5,45.5-45.5s45.5,20.4,45.5,45.5S-551.9,586.5-577,586.5z"
   id="path3258"
   style="fill:#ffffff;fill-opacity:1" />
			<g
   id="g3262">
				<path
   class="st4"
   d="M-577,497c24.3,0,44,19.7,44,44s-19.7,44-44,44s-44-19.7-44-44S-601.3,497-577,497 M-577,494      c-26,0-47,21-47,47s21,47,47,47s47-21,47-47S-551,494-577,494L-577,494z"
   id="path3260"
   style="fill:#000000;fill-opacity:1" />
			</g>
		</g>
		<circle
   class="st5"
   cx="-577"
   cy="541"
   r="27.3"
   id="circle3266"
   style="fill:#ffffff;fill-opacity:1" />
		<g
   id="g3272">
			<path
   d="M-597.3,527.5h12.6c5.8,0,8.7,2.7,8.7,7.1c0,5.1-3.5,6.4-4.4,6.7v0.1c1.6,0.2,3.9,1.4,3.9,5.6c0,3.1,0.4,5.9,1.4,7h-5     c-0.7-1.1-0.7-2.6-0.7-3.9c0-4.8-1-7-5.3-7h-6.8V554h-4.6v-26.5H-597.3z M-592.7,539.6h7.6c3,0,4.5-1.4,4.5-4.2     c0-3.4-2.2-4-4.6-4h-7.5V539.6z"
   id="path3268"
   style="fill:#ffffff;fill-opacity:1" />
			<path
   d="M-565.7,538.8c2.8,0.1,5.7-0.9,5.7-4.1c0-2.2-1.7-3.7-4-3.7c-2.9,0-4.4,2.6-4.3,5.3h-4.2c0.2-5,3.4-8.8,8.6-8.8     c4,0,8.2,2.3,8.2,6.9c0,2.6-1.1,4.7-3.7,5.5v0.1c3,0.6,4.7,3.1,4.7,6.5c0,4.9-4.3,7.9-9.2,7.9c-6,0-9-3.6-9.1-9h4.2     c-0.1,3.1,1.6,5.5,4.9,5.5c2.8,0,5-1.7,5-4.6c0-4-3.4-4.5-6.8-4.4L-565.7,538.8L-565.7,538.8z"
   id="path3270"
   style="fill:#ffffff;fill-opacity:1" />
		</g>
	</g>
</g>
</svg>