<svg id="Layer_1" data-name="Layer 1" xmlns="http://www.w3.org/2000/svg" width="224.1" height="112.4" viewBox="0 0 224.1 112.4"><defs><style>.cls-1{fill:#fff;}.cls-2{fill:#fefeff;}.cls-3{fill:#0f0505;}.cls-4{fill:#1d1d1b;}.cls-5{fill:#000003;}.cls-6{fill:#00000a;}</style></defs><title>ledabxy3</title><g id="g4126"><g id="g4122"><path id="path4118" class="cls-1" d="M27.3,53.6A26.3,26.3,0,1,1,53.6,27.3,26.33,26.33,0,0,1,27.3,53.6Z"/><path id="path4120" class="cls-2" d="M27.3,2A25.3,25.3,0,1,1,2,27.3,25.33,25.33,0,0,1,27.3,2m0-2A27.3,27.3,0,1,0,54.6,27.3,27.34,27.34,0,0,0,27.3,0Z"/></g><polygon id="polygon4124" class="cls-3" points="41.7 14.9 39.7 12.9 27.3 25.3 14.9 12.9 12.9 14.9 25.3 27.3 12.9 39.7 14.9 41.7 27.3 29.3 39.7 41.7 41.7 39.7 29.3 27.3 41.7 14.9"/></g><g id="g4136"><g id="g4132"><path id="path4128" class="cls-1" d="M83.8,53.5A26.3,26.3,0,1,1,110,27.3,26.33,26.33,0,0,1,83.8,53.5Z"/><path id="path4130" class="cls-1" d="M83.8,2.1A25.3,25.3,0,1,1,58.5,27.4,25.33,25.33,0,0,1,83.8,2.1m0-2A27.3,27.3,0,1,0,111,27.3,27.34,27.34,0,0,0,83.8.1Z"/></g><path id="path4134" class="cls-4" d="M83.8,8.4a18.9,18.9,0,1,0,18.9,18.9A18.95,18.95,0,0,0,83.8,8.4Zm0,34.9a16,16,0,1,1,16-16A16,16,0,0,1,83.8,43.3Z"/></g><g id="g4146"><g id="g4142"><path id="path4138" class="cls-1" d="M140.3,54.1a26.3,26.3,0,1,1,26.3-26.3A26.33,26.33,0,0,1,140.3,54.1Z"/><path id="path4140" class="cls-1" d="M140.3,2.7A25.3,25.3,0,1,1,115,28,25.33,25.33,0,0,1,140.3,2.7m0-2A27.3,27.3,0,1,0,167.6,28,27.34,27.34,0,0,0,140.3.7Z"/></g><path id="path4144" class="cls-4" d="M151.8,13.5H126V42.1h28.6V13.5Zm0,25.9h-23v-23h23Z"/></g><g id="g4158"><g id="g4156"><g id="g4152"><path id="path4148" class="cls-1" d="M196.8,54.8a26.3,26.3,0,1,1,26.3-26.3A26.33,26.33,0,0,1,196.8,54.8Z"/><path id="path4150" class="cls-1" d="M196.8,3.3a25.3,25.3,0,1,1-25.3,25.3A25.33,25.33,0,0,1,196.8,3.3m0-2a27.3,27.3,0,1,0,27.3,27.3A27.34,27.34,0,0,0,196.8,1.3Z"/></g><path id="path4154" class="cls-4" d="M212.8,36.6,196.8,9l-16,27.6-1.6,2.8h35.2Zm-16,0H184.1l12.7-21.9,12.7,21.9Z"/></g></g><g id="g4168"><g id="g4164"><path id="path4160" class="cls-4" d="M27.3,111.4A26.3,26.3,0,1,1,53.6,85.1,26.33,26.33,0,0,1,27.3,111.4Z"/><path id="path4162" d="M27.3,59.8A25.3,25.3,0,1,1,2,85.1,25.33,25.33,0,0,1,27.3,59.8m0-2A27.3,27.3,0,1,0,54.6,85.1,27.34,27.34,0,0,0,27.3,57.8Z"/></g><polygon id="polygon4166" class="cls-5" points="41.7 72.7 39.7 70.7 27.3 83.1 14.9 70.7 12.9 72.7 25.3 85.1 12.9 97.5 14.9 99.5 27.3 87.1 39.7 99.5 41.7 97.5 29.3 85.1 41.7 72.7"/></g><g id="g4178"><g id="g4174"><path id="path4170" class="cls-4" d="M83.8,111.2a26.3,26.3,0,1,1,26.3-26.3A26.33,26.33,0,0,1,83.8,111.2Z"/><path id="path4172" d="M83.8,59.8A25.3,25.3,0,1,1,58.5,85.1,25.33,25.33,0,0,1,83.8,59.8m0-2a27.3,27.3,0,1,0,27.3,27.3A27.34,27.34,0,0,0,83.8,57.8Z"/></g><path id="path4176" d="M83.8,66.1A18.9,18.9,0,1,0,102.7,85,18.95,18.95,0,0,0,83.8,66.1Zm0,34.9a16,16,0,1,1,16-16A16,16,0,0,1,83.8,101Z"/></g><g id="g4188"><g id="g4184"><path id="path4180" class="cls-4" d="M140.3,111.2a26.3,26.3,0,1,1,26.3-26.3A26.33,26.33,0,0,1,140.3,111.2Z"/><path id="path4182" class="cls-6" d="M140.3,59.8A25.3,25.3,0,1,1,115,85.1a25.33,25.33,0,0,1,25.3-25.3m0-2a27.3,27.3,0,1,0,27.3,27.3,27.34,27.34,0,0,0-27.3-27.3Z"/></g><path id="path4186" d="M151.8,70.6H126V99.2h28.6V70.6Zm0,25.9h-23v-23h23Z"/></g><g id="g4202"><g id="g4200"><g id="g4198"><g id="g4194"><path id="path4190" class="cls-4" d="M196.8,111.3A26.3,26.3,0,1,1,223.1,85,26.33,26.33,0,0,1,196.8,111.3Z"/><path id="path4192" d="M196.8,59.8a25.3,25.3,0,1,1-25.3,25.3,25.33,25.33,0,0,1,25.3-25.3m0-2a27.3,27.3,0,1,0,27.3,27.3,27.34,27.34,0,0,0-27.3-27.3Z"/></g><path id="path4196" d="M212.8,93l-16-27.6L180.8,93l-1.6,2.8h35.2Zm-16,0H184.1l12.7-21.9L209.5,93Z"/></g></g></g></svg>