<svg id="Layer_1" data-name="Layer 1" xmlns="http://www.w3.org/2000/svg" width="286" height="94" viewBox="0 0 286 94"><defs><style>.cls-1{fill:#fff;}.cls-2{fill:#eceef1;}.cls-3{fill:#d7d7d7;}.cls-4{fill:#c8f902;}.cls-5{fill:#deffff;}.cls-6{fill:#96f902;}</style></defs><title>ledsticks1</title><g id="g2937"><g id="g2899"><g id="g2897"><g id="g2893"><path id="path2887" class="cls-1" d="M47,92.5A45.5,45.5,0,1,1,92.5,47,45.5,45.5,0,0,1,47,92.5Z" transform="translate(0 0)"/><g id="g2891"><path id="path2889" class="cls-2" d="M47,3A44,44,0,1,1,3,47,44,44,0,0,1,47,3m0-3a47,47,0,1,0,.1,0Z" transform="translate(0 0)"/></g></g><circle id="circle2895" class="cls-3" cx="47" cy="47" r="27.3"/></g></g><g id="g2917"><g id="g2907"><path id="path2901" class="cls-4" d="M143,92.5A45.5,45.5,0,1,1,188.5,47,45.5,45.5,0,0,1,143,92.5Z" transform="translate(0 0)"/><g id="g2905"><path id="path2903" class="cls-5" d="M143,3A44,44,0,1,1,99,47,44,44,0,0,1,143,3m0-3a47,47,0,1,0,.1,0Z" transform="translate(0 0)"/></g></g><circle id="circle2909" class="cls-6" cx="143" cy="47" r="27.3"/><g id="g2915"><path id="path2911" d="M125.1,33.5h4.6V55.9h13.4v4h-18Z" transform="translate(0 0)"/><path id="path2913" d="M151.9,44.8c2.8.1,5.7-.9,5.7-4.1A3.71,3.71,0,0,0,153.89,37h-.29c-2.9,0-4.4,2.6-4.3,5.3h-4.2c.2-5,3.4-8.8,8.6-8.8,4,0,8.2,2.3,8.2,6.9,0,2.6-1.1,4.7-3.7,5.5V46c3,.6,4.7,3.1,4.7,6.5,0,4.9-4.3,7.9-9.2,7.9-6,0-9-3.6-9.1-9h4.2c-.1,3.1,1.6,5.5,4.9,5.5,2.8,0,5-1.7,5-4.6,0-4-3.4-4.5-6.8-4.4V44.8Z" transform="translate(0 0)"/></g></g><g id="g2935"><g id="g2925"><path id="path2919" class="cls-4" d="M239,92.5A45.5,45.5,0,1,1,284.5,47,45.5,45.5,0,0,1,239,92.5Z" transform="translate(0 0)"/><g id="g2923"><path id="path2921" class="cls-1" d="M239,3a44,44,0,1,1-44,44A44,44,0,0,1,239,3m0-3a47,47,0,1,0,.1,0Z" transform="translate(0 0)"/></g></g><circle id="circle2927" class="cls-6" cx="239" cy="47" r="27.3" transform="translate(151.25 274.22) rotate(-80.01)"/><g id="g2933"><path id="path2929" d="M218.7,33.5h12.6c5.8,0,8.7,2.7,8.7,7.1,0,5.1-3.5,6.4-4.4,6.7v.1c1.6.2,3.9,1.4,3.9,5.6,0,3.1.4,5.9,1.4,7h-5a7.29,7.29,0,0,1-.7-3.9c0-4.8-1-7-5.3-7h-6.8V60h-4.6V33.5Zm4.6,12.1h7.6q4.5,0,4.5-4.2c0-3.4-2.2-4-4.6-4h-7.5Z" transform="translate(0 0)"/><path id="path2931" d="M250.3,44.8c2.8.1,5.7-.9,5.7-4.1A3.71,3.71,0,0,0,252.29,37H252c-2.9,0-4.4,2.6-4.3,5.3h-4.2c.2-5,3.4-8.8,8.6-8.8,4,0,8.2,2.3,8.2,6.9,0,2.6-1.1,4.7-3.7,5.5V46c3,.6,4.7,3.1,4.7,6.5,0,4.9-4.3,7.9-9.2,7.9-6,0-9-3.6-9.1-9h4.2c-.1,3.1,1.6,5.5,4.9,5.5,2.8,0,5-1.7,5-4.6,0-4-3.4-4.5-6.8-4.4Z" transform="translate(0 0)"/></g></g></g></svg>