<?xml version="1.0" encoding="UTF-8" standalone="no"?>
<svg
   xmlns:dc="http://purl.org/dc/elements/1.1/"
   xmlns:cc="http://creativecommons.org/ns#"
   xmlns:rdf="http://www.w3.org/1999/02/22-rdf-syntax-ns#"
   xmlns:svg="http://www.w3.org/2000/svg"
   xmlns="http://www.w3.org/2000/svg"
   xmlns:sodipodi="http://sodipodi.sourceforge.net/DTD/sodipodi-0.dtd"
   xmlns:inkscape="http://www.inkscape.org/namespaces/inkscape"
   version="1.1"
   id="Layer_1"
   x="0px"
   y="0px"
   width="67.40899658203125px"
   height="33.20600128173828px"
   viewBox="0 -0.00735019 67.409 33.2207"
   enable-background="new 0 0 67.409 33.206"
   xml:space="preserve"
   preserveAspectRatio="xMidYMid meet"
   sodipodi:docname="snipestart.svg"
   inkscape:version="0.92.4 (5da689c313, 2019-01-14)"><metadata
   id="metadata10172"><rdf:RDF><cc:Work
       rdf:about=""><dc:format>image/svg+xml</dc:format><dc:type
         rdf:resource="http://purl.org/dc/dcmitype/StillImage" /><dc:title></dc:title></cc:Work></rdf:RDF></metadata><defs
   id="defs10170" /><sodipodi:namedview
   pagecolor="#ffffff"
   bordercolor="#666666"
   borderopacity="1"
   objecttolerance="10"
   gridtolerance="10"
   guidetolerance="10"
   inkscape:pageopacity="0"
   inkscape:pageshadow="2"
   inkscape:window-width="1920"
   inkscape:window-height="1017"
   id="namedview10168"
   showgrid="false"
   inkscape:zoom="4.2724267"
   inkscape:cx="33.704498"
   inkscape:cy="16.603001"
   inkscape:window-x="1912"
   inkscape:window-y="-8"
   inkscape:window-maximized="1"
   inkscape:current-layer="Layer_1" /><rect
   id="svgEditorBackground"
   x="0"
   y="0"
   width="67.40899658203125"
   height="33.20600128173828"
   style="fill:none;stroke:none;" />
<g
   id="Menu_Pressed">
	<path
   fill="#F5F5F5"
   stroke="#FFFFFF"
   stroke-miterlimit="10"
   d="M66.909,16.603c0,8.902999999999999,-7.228999999999999,16.103,-16.102000000000004,16.103c-8.900999999999996,0,-16.102000000000004,-7.199999999999999,-16.102000000000004,-16.103c0,-8.896,7.200000000000003,-16.103,16.102000000000004,-16.103c8.873999999999995,0,16.102000000000004,7.207,16.102000000000004,16.103Z"
   id="path10117" />
	<g
   id="g10125">
		<rect
   x="43.612009212118984"
   y="11.978001016536481"
   width="14.361"
   height="1.552"
   style="fill:#000000;fill-opacity:1"
   id="rect10119" />
		<rect
   x="43.612"
   y="15.896"
   width="14.361"
   height="1.552"
   style="fill:#000000;fill-opacity:1"
   id="rect10121" />
		<rect
   x="43.612"
   y="19.706"
   width="14.361"
   height="1.532"
   style="fill:#000000;fill-opacity:1"
   id="rect10123" />
	</g>
</g>
<g
   id="Switcher_PRessed">
	<path
   fill="#F5F5F5"
   stroke="#FFFFFF"
   stroke-miterlimit="10"
   d="M32.706,16.603c0,8.902999999999999,-7.2010000000000005,16.103,-16.103,16.103c-8.872,0,-16.103,-7.199999999999999,-16.103,-16.103c0,-8.896,7.231,-16.103,16.103,-16.103c8.901999999999997,0,16.103,7.207,16.103,16.103Z"
   id="path10128" />
	<g
   id="g10134">
		<polygon
   points="14.087,16.502 11.056,16.502 11.056,12.718 16.528,12.718 16.528,14.039 18.328,14.039     18.328,10.979 9.437,10.979 9.437,18.369 14.087,18.369   "
   style="fill:#000000;fill-opacity:1"
   id="polygon10130" />
		<path
   d="M14.837,14.663v7.584h8.96v-7.584h-8.96ZM21.998000000000005,20.447h-5.469999999999999v-3.9450000000000003h5.469999999999999v3.9450000000000003Z"
   style="fill:#000000;fill-opacity:1"
   id="path10132" />
	</g>
</g>
<g
   id="g10137">
</g>
<g
   id="g10139">
</g>
<g
   id="g10141">
</g>
<g
   id="g10143">
</g>
<g
   id="g10145">
</g>
<g
   id="g10147">
</g>
<g
   id="g10149">
</g>
<g
   id="g10151">
</g>
<g
   id="g10153">
</g>
<g
   id="g10155">
</g>
<g
   id="g10157">
</g>
<g
   id="g10159">
</g>
<g
   id="g10161">
</g>
<g
   id="g10163">
</g>
<g
   id="g10165">
</g>
</svg>