<svg xmlns="http://www.w3.org/2000/svg" viewBox="0 0 286 94" width="286" height="94">
	<defs>
		<linearGradient id="grd1" gradientUnits="userSpaceOnUse"  x1="-50.46" y1="120.688" x2="142.46" y2="-24.688">
			<stop offset="0" stop-color="#00ffae"  />
			<stop offset="1" stop-color="#0054ff"  />
		</linearGradient>
		<linearGradient id="grd2" gradientUnits="userSpaceOnUse"  x1="-71.44" y1="136.251" x2="165.44" y2="-42.251">
			<stop offset="0" stop-color="#00ffae"  />
			<stop offset="1" stop-color="#0054ff"  />
		</linearGradient>
		<linearGradient id="grd3" gradientUnits="userSpaceOnUse"  x1="-21.796" y1="98.842" x2="115.796" y2="-4.842">
			<stop offset="0" stop-color="#00ffae"  />
			<stop offset="1" stop-color="#0054ff"  />
		</linearGradient>
		<linearGradient id="grd4" gradientUnits="userSpaceOnUse"  x1="28.34" y1="133.403" x2="257.66" y2="-39.403">
			<stop offset="0" stop-color="#ffffff"  />
			<stop offset="1" stop-color="#000000"  />
		</linearGradient>
		<linearGradient id="grd5" gradientUnits="userSpaceOnUse"  x1="74.204" y1="98.842" x2="211.796" y2="-4.842">
			<stop offset="0" stop-color="#ffffff"  />
			<stop offset="1" stop-color="#000000"  />
		</linearGradient>
		<linearGradient id="grd6" gradientUnits="userSpaceOnUse"  x1="124.34" y1="133.403" x2="353.66" y2="-39.403">
			<stop offset="0" stop-color="#ffffff"  />
			<stop offset="1" stop-color="#000000"  />
		</linearGradient>
		<linearGradient id="grd7" gradientUnits="userSpaceOnUse"  x1="170.204" y1="98.842" x2="307.796" y2="-4.842">
			<stop offset="0" stop-color="#ffffff"  />
			<stop offset="1" stop-color="#000000"  />
		</linearGradient>
	</defs>
	<style>
		tspan { white-space:pre }
		.shp0 { fill: url(#grd1) } 
		.shp1 { fill: url(#grd2) } 
		.shp2 { opacity: 0.349;fill: #000000 } 
		.shp3 { fill: url(#grd3) } 
		.shp4 { fill: url(#grd4) } 
		.shp5 { fill: #000000 } 
		.shp6 { fill: url(#grd5) } 
		.shp7 { fill: url(#grd6) } 
		.shp8 { fill: url(#grd7) } 
	</style>
	<g id="Layer">
		<g id="Layer">
			<g id="Layer">
				<g id="Layer">
					<path id="Layer" class="shp0" d="M46 93.5C20.9 93.5 0.5 73.1 0.5 48C0.5 22.9 20.9 2.5 46 2.5C71.1 2.5 91.5 22.9 91.5 48C91.5 73.1 71.1 93.5 46 93.5Z" />
					<g id="Layer">
						<path id="Layer" fill-rule="evenodd" class="shp1" d="M47 0C73 0 94 21 94 47C94 73 73 94 47 94C21 94 0 73 0 47C0 21 21 0 47 0ZM3 47C3 71.3 22.7 91 47 91C71.3 91 91 71.3 91 47C91 22.7 71.3 3 47 3C22.7 3 3 22.7 3 47Z" />
						<path id="Layer copy 2" fill-rule="evenodd" class="shp2" d="M47 0C73 0 94 21 94 47C94 73 73 94 47 94C21 94 0 73 0 47C0 21 21 0 47 0ZM3 47C3 71.3 22.7 91 47 91C71.3 91 91 71.3 91 47C91 22.7 71.3 3 47 3C22.7 3 3 22.7 3 47Z" />
					</g>
				</g>
				<path id="Layer" class="shp3" d="M47 74.3C31.9 74.3 19.7 62.1 19.7 47C19.7 31.9 31.9 19.7 47 19.7C62.1 19.7 74.3 31.9 74.3 47C74.3 62.1 62.1 74.3 47 74.3Z" />
				<path id="Layer copy" class="shp2" d="M47 74.3C31.9 74.3 19.7 62.1 19.7 47C19.7 31.9 31.9 19.7 47 19.7C62.1 19.7 74.3 31.9 74.3 47C74.3 62.1 62.1 74.3 47 74.3Z" />
			</g>
		</g>
		<g id="Layer">
			<g id="Layer">
				<path id="Layer" class="shp4" d="M143 92.5C117.9 92.5 97.5 72.1 97.5 47C97.5 21.9 117.9 1.5 143 1.5C168.1 1.5 188.5 21.9 188.5 47C188.5 72.1 168.1 92.5 143 92.5Z" />
				<g id="Layer">
					<path id="Layer" fill-rule="evenodd" class="shp5" d="M143 0C169 0 190 21 190 47C190 73 169 94 143 94C117 94 96 73 96 47C96 21 117 0 143 0ZM99 47C99 71.3 118.7 91 143 91C167.3 91 187 71.3 187 47C187 22.7 167.3 3 143 3C118.7 3 99 22.7 99 47Z" />
				</g>
			</g>
			<path id="Layer" class="shp6" d="M143 74.3C127.9 74.3 115.7 62.1 115.7 47C115.7 31.9 127.9 19.7 143 19.7C158.1 19.7 170.3 31.9 170.3 47C170.3 62.1 158.1 74.3 143 74.3Z" />
			<g id="Layer">
				<path id="Layer" class="shp5" d="M125.1 33.5L129.7 33.5L129.7 55.9L143.1 55.9L143.1 59.9L125.1 59.9L125.1 33.5Z" />
				<path id="Layer" class="shp5" d="M151.9 44.8C154.7 44.9 157.6 43.9 157.6 40.7C157.6 38.5 155.9 37 153.6 37C150.7 37 149.2 39.6 149.3 42.3L145.1 42.3C145.3 37.3 148.5 33.5 153.7 33.5C157.7 33.5 161.9 35.8 161.9 40.4C161.9 43 160.8 45.1 158.2 45.9L158.2 46C161.2 46.6 162.9 49.1 162.9 52.5C162.9 57.4 158.6 60.4 153.7 60.4C147.7 60.4 144.7 56.8 144.6 51.4L148.8 51.4C148.7 54.5 150.4 56.9 153.7 56.9C156.5 56.9 158.7 55.2 158.7 52.3C158.7 48.3 155.3 47.8 151.9 47.9L151.9 44.8L151.9 44.8Z" />
			</g>
		</g>
		<g id="Layer">
			<g id="Layer">
				<path id="Layer" class="shp7" d="M239 92.5C213.9 92.5 193.5 72.1 193.5 47C193.5 21.9 213.9 1.5 239 1.5C264.1 1.5 284.5 21.9 284.5 47C284.5 72.1 264.1 92.5 239 92.5Z" />
				<g id="Layer">
					<path id="Layer" fill-rule="evenodd" class="shp5" d="M239 0C265 0 286 21 286 47C286 73 265 94 239 94C213 94 192 73 192 47C192 21 213 0 239 0ZM195 47C195 71.3 214.7 91 239 91C263.3 91 283 71.3 283 47C283 22.7 263.3 3 239 3C214.7 3 195 22.7 195 47Z" />
				</g>
			</g>
			<path id="Layer" class="shp8" d="M239 74.3C223.9 74.3 211.7 62.1 211.7 47C211.7 31.9 223.9 19.7 239 19.7C254.1 19.7 266.3 31.9 266.3 47C266.3 62.1 254.1 74.3 239 74.3Z" />
			<g id="Layer">
				<path id="Layer" fill-rule="evenodd" class="shp5" d="M231.3 33.5C237.1 33.5 240 36.2 240 40.6C240 45.7 236.5 47 235.6 47.3L235.6 47.4C237.2 47.6 239.5 48.8 239.5 53C239.5 56.1 239.9 58.9 240.9 60L235.9 60C235.2 58.9 235.2 57.4 235.2 56.1C235.2 51.3 234.2 49.1 229.9 49.1L223.1 49.1L223.1 60L218.5 60L218.5 33.5L231.3 33.5ZM223.3 45.6L230.9 45.6C233.9 45.6 235.4 44.2 235.4 41.4C235.4 38 233.2 37.4 230.8 37.4L223.3 37.4L223.3 45.6Z" />
				<path id="Layer" class="shp5" d="M250.3 44.8C253.1 44.9 256 43.9 256 40.7C256 38.5 254.3 37 252 37C249.1 37 247.6 39.6 247.7 42.3L243.5 42.3C243.7 37.3 246.9 33.5 252.1 33.5C256.1 33.5 260.3 35.8 260.3 40.4C260.3 43 259.2 45.1 256.6 45.9L256.6 46C259.6 46.6 261.3 49.1 261.3 52.5C261.3 57.4 257 60.4 252.1 60.4C246.1 60.4 243.1 56.8 243 51.4L247.2 51.4C247.1 54.5 248.8 56.9 252.1 56.9C254.9 56.9 257.1 55.2 257.1 52.3C257.1 48.3 253.7 47.8 250.3 47.9L250.3 44.8L250.3 44.8Z" />
			</g>
		</g>
	</g>
</svg>