<svg xmlns="http://www.w3.org/2000/svg" viewBox="0 0 806 599" width="806" height="599">
	<defs>
		<filter x="-50%" y="-50%" width="200%" height="200%" id="flt1"> <feGaussianBlur stdDeviation="1.603" /> </filter>
		<filter x="-50%" y="-50%" width="200%" height="200%" id="flt2"> <feGaussianBlur stdDeviation="5.203" /> </filter>
		<filter x="-50%" y="-50%" width="200%" height="200%" id="flt3"> <feGaussianBlur stdDeviation="14.99" /> </filter>
	</defs>
	<style>
		tspan { white-space:pre }
		.shp0 { fill: #000000;stroke: #000000;stroke-width: 0 } 
		.shp1 { fill: #ffffff } 
		.shp2 { fill: #131313 } 
		.shp3 { fill: #000000 } 
		.shp4 { fill: #0d0d0d } 
		.shp5 { fill: #ffffea } 
		.shp6 { filter: url(#flt1);fill: #000000 } 
		.shp7 { fill: #000000;stroke: #ffffff;stroke-width: 1.757 } 
		.shp8 { filter: url(#flt2);fill: #000000 } 
		.shp9 { opacity: 0.22;fill: #1a1a1a } 
		.shp10 { opacity: 0.22;fill: #000000 } 
		.shp11 { fill: #ffffff;stroke: #ffffff } 
		.shp12 { fill: #000000;stroke: #ffffff;stroke-width: 5.9 } 
		.shp13 { opacity: 0;fill: #000000 } 
		.shp14 { fill: #0b0b0f } 
		.shp15 { fill: #000000;stroke: #ffffff } 
		.shp16 { filter: url(#flt3);fill: #000000 } 
		.shp17 { fill: #000009 } 
		.shp18 { fill: #000000;stroke: #000000;stroke-width: 2 } 
		.shp19 { fill: #f2f2f2 } 
		.shp20 { fill: #000003 } 
		.shp21 { fill: #0a0a0a } 
		.shp22 { fill: none } 
	</style>
	<g id="g129">
		<g id="g127">
			<g id="g125">
				<path id="path91" class="shp0" d="M801.3 418.7C798.4 403.2 783.6 316.2 769.3 274.1C759.9 246.4 756.2 221.1 752.3 209.2C740.3 173.5 719.3 143.5 719.3 143.5C719.3 143.5 709.8 130.4 709.2 127.2C708.6 123.9 704.5 118.6 704.5 118.6C704.5 118.6 687.1 112.9 642.2 112.9C597.3 112.9 588.5 117.9 588.5 117.9C588.5 117.9 586.1 120.8 582.6 122.7C579.1 124.5 570.9 124.4 570.9 124.4L537.5 124.4C537.5 124.4 536.9 124.3 536.6 124.7C536.2 125.1 536 126.7 536 126.7L403 126.7L269.9 126.7C269.9 126.7 269.6 125 269.3 124.7C268.9 124.3 268.4 124.4 268.4 124.4L235 124.4C235 124.4 226.8 124.6 223.3 122.7C219.8 120.9 217.4 117.9 217.4 117.9C217.4 117.9 208.6 112.9 163.7 112.9C118.9 112.9 101.4 118.6 101.4 118.6C101.4 118.6 97.3 123.9 96.7 127.2C96.1 130.5 86.6 143.5 86.6 143.5C86.6 143.5 65.6 173.5 53.6 209.2C49.6 221.1 45.9 246.4 36.6 274.1C22.3 316.2 7.5 403.2 4.6 418.7C0.3 441.9 0 508.9 0 508.9C0 508.9 4.5 562.3 36.2 583.8C67.9 605.3 92.9 597.8 92.9 597.8C92.9 597.8 126 589.6 150.7 555.9C175.4 522.2 207.3 426.7 207.3 426.7C207.3 426.7 209.5 423.7 213 421.4C216.5 419.1 219.3 418.8 219.3 418.8L403 418.9L586.7 418.8C586.7 418.8 589.5 419.1 593 421.4C596.5 423.7 598.7 426.7 598.7 426.7C598.7 426.7 630.6 522.1 655.3 555.9C680 589.7 713.1 597.8 713.1 597.8C713.1 597.8 738.1 605.3 769.8 583.8C801.5 562.3 806 508.9 806 508.9C806 508.9 805.7 441.9 801.3 418.7L801.3 418.7Z" />
				<g id="g95" style="opacity: 0.059">
					<path id="path93" class="shp1" d="M36.6 276.1C46 248.4 49.7 223.1 53.6 211.2C65.6 175.5 86.6 145.5 86.6 145.5C86.6 145.5 96.1 132.4 96.7 129.2C97.3 125.9 101.4 120.6 101.4 120.6C101.4 120.6 118.8 114.9 163.7 114.9C208.5 114.9 217.4 119.9 217.4 119.9C217.4 119.9 219.8 122.8 223.3 124.7C226.8 126.5 235 126.4 235 126.4L268.4 126.4C268.4 126.4 269 126.3 269.3 126.7C269.7 127.1 269.9 128.7 269.9 128.7L403 128.7L536.1 128.7C536.1 128.7 536.4 127 536.7 126.7C537.1 126.3 537.6 126.4 537.6 126.4L571 126.4C571 126.4 579.2 126.6 582.7 124.7C586.2 122.9 588.6 119.9 588.6 119.9C588.6 119.9 597.4 114.9 642.3 114.9C687.2 114.9 704.6 120.6 704.6 120.6C704.6 120.6 708.7 125.9 709.3 129.2C709.9 132.5 719.4 145.5 719.4 145.5C719.4 145.5 740.4 175.5 752.4 211.2C756.4 223.1 760.1 248.4 769.4 276.1C783.7 318.2 798.5 405.2 801.4 420.7C805.3 441.6 806 498 806.1 509C806.1 508.9 806.1 508.9 806.1 508.9C806.1 508.9 805.8 442 801.4 418.8C798.5 403.3 783.7 316.3 769.4 274.2C760 246.5 756.3 221.2 752.4 209.3C740.4 173.6 719.4 143.6 719.4 143.6C719.4 143.6 709.9 130.5 709.3 127.3C708.7 124 704.6 118.7 704.6 118.7C704.6 118.7 687.2 113 642.3 113C597.4 113 588.6 118 588.6 118C588.6 118 586.2 120.9 582.7 122.8C579.2 124.6 571 124.5 571 124.5L537.6 124.5C537.6 124.5 537 124.4 536.7 124.8C536.3 125.2 536.1 126.8 536.1 126.8L403 126.8L269.9 126.8C269.9 126.8 269.6 125.1 269.3 124.8C268.9 124.4 268.4 124.5 268.4 124.5L235 124.5C235 124.5 226.8 124.7 223.3 122.8C219.8 121 217.4 118 217.4 118C217.4 118 208.6 113 163.7 113C118.9 113 101.4 118.7 101.4 118.7C101.4 118.7 97.3 124 96.7 127.3C96.1 130.6 86.6 143.6 86.6 143.6C86.6 143.6 65.6 173.6 53.6 209.3C49.6 221.2 45.9 246.5 36.6 274.2C22.3 316.3 7.5 403.3 4.6 418.8C0.3 441.9 0 508.9 0 508.9L0 509C0.1 498.1 0.7 441.6 4.7 420.7C7.6 405.3 22.3 318.2 36.6 276.1Z" />
				</g>
				<path id="path97" class="shp2" d="M351.2 360.1C351.2 317.9 316.9 283.6 274.7 283.6C232.5 283.6 198.2 317.9 198.2 360.1C198.2 360.8 198.2 361.4 198.3 362.1C198.3 362.8 198.2 363.4 198.2 364.1C198.2 406.3 232.5 440.6 274.7 440.6C316.9 440.6 351.2 406.3 351.2 364.1C351.2 363.4 351.2 362.8 351.1 362.1C351.1 361.4 351.2 360.7 351.2 360.1Z" />
				<path id="circle99" class="shp3" d="M347.7 356.1C347.7 365.69 345.81 375.18 342.14 384.04C338.47 392.89 333.1 400.94 326.32 407.72C319.54 414.5 311.49 419.87 302.64 423.54C293.78 427.21 284.29 429.1 274.7 429.1C265.11 429.1 255.62 427.21 246.76 423.54C237.91 419.87 229.86 414.5 223.08 407.72C216.3 400.94 210.93 392.89 207.26 384.04C203.59 375.18 201.7 365.69 201.7 356.1C201.7 346.51 203.59 337.02 207.26 328.16C210.93 319.31 216.3 311.26 223.08 304.48C229.86 297.7 237.91 292.33 246.76 288.66C255.62 284.99 265.11 283.1 274.7 283.1C284.29 283.1 293.78 284.99 302.64 288.66C311.49 292.33 319.54 297.7 326.32 304.48C333.1 311.26 338.47 319.31 342.14 328.16C345.81 337.02 347.7 346.51 347.7 356.1Z" />
				<path id="circle101" class="shp4" d="M274.7 407.6C246.22 407.6 223.2 384.58 223.2 356.1C223.2 327.62 246.22 304.6 274.7 304.6C303.18 304.6 326.2 327.62 326.2 356.1C326.2 384.58 303.18 407.6 274.7 407.6Z" />
				<path id="path103" class="shp2" d="M607.8 360.1C607.8 317.9 573.5 283.6 531.3 283.6C489.1 283.6 454.8 317.9 454.8 360.1C454.8 360.8 454.8 361.4 454.9 362.1C454.9 362.8 454.8 363.4 454.8 364.1C454.8 406.3 489.1 440.6 531.3 440.6C573.5 440.6 607.8 406.3 607.8 364.1C607.8 363.4 607.8 362.8 607.7 362.1C607.8 361.4 607.8 360.7 607.8 360.1Z" />
				<path id="circle105" class="shp3" d="M604.3 356.1C604.3 365.69 602.41 375.18 598.74 384.04C595.07 392.89 589.7 400.94 582.92 407.72C576.14 414.5 568.09 419.87 559.24 423.54C550.38 427.21 540.89 429.1 531.3 429.1C521.71 429.1 512.22 427.21 503.36 423.54C494.51 419.87 486.46 414.5 479.68 407.72C472.9 400.94 467.53 392.89 463.86 384.04C460.19 375.18 458.3 365.69 458.3 356.1C458.3 346.51 460.19 337.02 463.86 328.16C467.53 319.31 472.9 311.26 479.68 304.48C486.46 297.7 494.51 292.33 503.36 288.66C512.22 284.99 521.71 283.1 531.3 283.1C540.89 283.1 550.38 284.99 559.24 288.66C568.09 292.33 576.14 297.7 582.92 304.48C589.7 311.26 595.07 319.31 598.74 328.16C602.41 337.02 604.3 346.51 604.3 356.1Z" />
				<path id="circle107" class="shp4" d="M531.3 407.6C502.82 407.6 479.8 384.58 479.8 356.1C479.8 327.62 502.82 304.6 531.3 304.6C559.78 304.6 582.8 327.62 582.8 356.1C582.8 384.58 559.78 407.6 531.3 407.6Z" />
				<path id="path109" class="shp5" d="M534.8 128.1C534.4 124.9 531.5 122.5 528.3 122.5L528.3 122.5L403 122.5L403 122.5L277.7 122.5L277.7 122.5C274.5 122.5 271.6 124.8 271.2 128.1C271.1 128.8 271.1 129.5 271.1 130.2L271.1 257.6C271.1 266.5 278.3 273.7 287.2 273.7L403 273.7L403 273.7L518.8 273.7C527.7 273.7 534.9 266.5 534.9 257.6L534.9 130.2C535 129.5 534.9 128.8 534.8 128.1Z" />
				<path id="circle111" class="shp6" d="M652.3 339.2C600.15 339.2 558 297.05 558 244.9C558 192.75 600.15 150.6 652.3 150.6C704.45 150.6 746.6 192.75 746.6 244.9C746.6 297.05 704.45 339.2 652.3 339.2Z" />
				<g id="g123">
					<path id="circle113" class="shp6" d="M153.7 339.2C101.55 339.2 59.4 297.05 59.4 244.9C59.4 192.75 101.55 150.6 153.7 150.6C205.85 150.6 248 192.75 248 244.9C248 297.05 205.85 339.2 153.7 339.2Z" />
					<path id="path115" class="shp7" d="M230.4 254.2L239.9 245.3C240.4 244.8 240.4 244.1 239.9 243.6L230.4 234.7C229.7 234 228.5 234.5 228.5 235.5L228.5 244.4L228.5 253.3C228.4 254.3 229.6 254.8 230.4 254.2Z" />
					<path id="path117" class="shp7" d="M145 169.9L153.9 169.9L162.8 169.9C163.8 169.9 164.3 168.7 163.6 168L154.7 158.5C154.2 158 153.5 158 153 158.5L144.1 168C143.5 168.7 144 169.9 145 169.9Z" />
					<path id="path119" class="shp7" d="M77.5 234.7L68 243.6C67.5 244.1 67.5 244.8 68 245.3L77.5 254.2C78.2 254.9 79.4 254.4 79.4 253.4L79.4 244.5L79.4 235.6C79.4 234.5 78.2 234 77.5 234.7Z" />
					<path id="path121" class="shp7" d="M162.8 318.9L153.9 318.9L145 318.9C144 318.9 143.5 320.1 144.2 320.8L153.1 330.3C153.6 330.8 154.3 330.8 154.8 330.3L163.7 320.8C164.3 320.1 163.8 318.9 162.8 318.9Z" />
				</g>
			</g>
		</g>
	</g>
	<g id="g191">
		<g id="g138">
			<path id="path134" class="shp8" d="M105.2 544.6C64.7 541.8 29.4 524.3 17.9 514.1C6.4 503.8 0.4 482.5 0.4 482.5C0 497.5 0 508.8 0 508.8C0 508.8 4.5 562.2 36.2 583.7C67.9 605.2 92.9 597.7 92.9 597.7C92.9 597.7 126 589.5 150.7 555.8C155.2 549.6 160 541.3 164.8 532C164.7 532 145.6 547.3 105.2 544.6Z" />
			<path id="path136" class="shp9" d="M90 592.6C77.5 594.4 58.7 590.6 44.9 584.9C31.3 579.2 20.9 568.5 20.9 568.5C25.1 574.3 30.2 579.6 36.2 583.7C67.9 605.2 92.9 597.7 92.9 597.7C92.9 597.7 104.6 594.8 119.2 585.4C119.2 585.4 104.6 590.6 90 592.6Z" />
		</g>
		<g id="g147">
			<path id="path143" class="shp8" d="M700.8 544.6C741.3 541.8 776.6 524.3 788.1 514.1C799.6 503.9 805.6 482.6 805.6 482.6C806 497.6 806 508.9 806 508.9C806 508.9 801.5 562.3 769.8 583.8C738.1 605.3 713.1 597.8 713.1 597.8C713.1 597.8 680 589.6 655.3 555.9C650.8 549.7 646 541.4 641.2 532.1C641.3 532 660.4 547.3 700.8 544.6Z" />
			<path id="path145" class="shp10" d="M716 592.6C728.5 594.4 747.3 590.6 761.1 584.9C774.7 579.2 785.1 568.5 785.1 568.5C780.9 574.3 775.8 579.6 769.8 583.7C738.1 605.2 713.1 597.7 713.1 597.7C713.1 597.7 701.4 594.8 686.8 585.4C686.8 585.4 701.4 590.6 716 592.6Z" />
		</g>
		<g id="g155">
			<g id="g153">
				<path id="path149" fill-rule="evenodd" class="shp11" d="M240.5 141.9C248.3 141.9 254.7 148.2 254.7 156.1L254.7 174.4C254.7 182.2 248.3 188.6 240.5 188.6C232.7 188.6 226.3 182.2 226.3 174.4L226.3 156.1C226.3 148.3 232.7 141.9 240.5 141.9ZM228 156.1L228 174.4C228 181.3 233.6 186.9 240.5 186.9C247.4 186.9 253 181.3 253 174.4L253 156.1C253 149.2 247.4 143.6 240.5 143.6C233.6 143.6 228 149.2 228 156.1Z" />
				<path id="path151" class="shp3" d="M240.5 143.6C233.6 143.6 228 149.2 228 156.1L228 174.4C228 181.3 233.6 186.9 240.5 186.9C247.4 186.9 253 181.3 253 174.4L253 156.1C253 149.2 247.4 143.6 240.5 143.6Z" />
			</g>
		</g>
		<g id="g163">
			<g id="g161">
				<path id="path157" fill-rule="evenodd" class="shp11" d="M565.5 141.9C573.3 141.9 579.7 148.2 579.7 156.1L579.7 174.4C579.7 182.2 573.3 188.6 565.5 188.6C557.7 188.6 551.3 182.2 551.3 174.4L551.3 156.1C551.3 148.3 557.7 141.9 565.5 141.9ZM565.5 143.6C558.6 143.6 553 149.2 553 156.1L553 174.4C553 181.3 558.6 186.9 565.5 186.9C572.4 186.9 578 181.3 578 174.4L578 156.1C578 149.2 572.4 143.6 565.5 143.6Z" />
				<path id="path159" class="shp3" d="M565.5 143.6C558.6 143.6 553 149.2 553 156.1L553 174.4C553 181.3 558.6 186.9 565.5 186.9C572.4 186.9 578 181.3 578 174.4L578 156.1C578 149.2 572.4 143.6 565.5 143.6Z" />
			</g>
		</g>
		<g id="g189">
			<g id="g169">
				<path id="path165" class="shp12" d="M141.2 247.3C142.6 245.3 142.4 244.4 142.4 244.4C142.4 244.4 142.6 243.5 141.2 241.5C139.8 239.5 126.2 227.9 125.5 227.5C124.8 227.1 97 225.3 94.1 228.8C91.2 232.3 91.5 244.4 91.5 244.4C91.5 244.4 91.2 256.5 94.1 260C97 263.5 124.8 261.7 125.5 261.3C126.2 260.9 139.8 249.3 141.2 247.3Z" />
				<path id="path167" class="shp13" d="M141.2 247.3C142.6 245.3 142.4 244.4 142.4 244.4C142.4 244.4 142.6 243.5 141.2 241.5C140.3 240.2 134.3 234.9 130 231.2C127.9 235.1 126.6 239.6 126.6 244.4C126.6 249.2 127.8 253.7 130 257.6C134.3 253.9 140.3 248.6 141.2 247.3Z" />
			</g>
			<g id="g175">
				<path id="path171" class="shp12" d="M151 231.7C153 233.1 153.9 232.9 153.9 232.9C153.9 232.9 154.8 233.1 156.8 231.7C158.8 230.3 170.4 216.7 170.8 216C171.2 215.3 173 187.5 169.5 184.6C166 181.7 153.9 182 153.9 182C153.9 182 141.8 181.7 138.3 184.6C134.8 187.5 136.6 215.3 137 216C137.5 216.7 149 230.3 151 231.7Z" />
				<path id="path173" class="shp13" d="M151 231.7C153 233.1 153.9 232.9 153.9 232.9C153.9 232.9 154.8 233.1 156.8 231.7C158.1 230.8 163.4 224.8 167.1 220.5C163.2 218.4 158.7 217.1 153.9 217.1C149.1 217.1 144.6 218.3 140.7 220.5C144.5 224.8 149.7 230.8 151 231.7Z" />
			</g>
			<g id="g181">
				<path id="path177" class="shp12" d="M213.7 228.9C210.8 225.4 183 227.2 182.3 227.6C181.6 228 168 239.6 166.6 241.6C165.2 243.6 165.4 244.5 165.4 244.5C165.4 244.5 165.2 245.4 166.6 247.4C168 249.4 181.6 261 182.3 261.4C183 261.8 210.8 263.6 213.7 260.1C216.6 256.6 216.3 244.5 216.3 244.5C216.3 244.5 216.6 232.4 213.7 228.9Z" />
				<path id="path179" class="shp13" d="M177.9 231.3C173.6 235 167.6 240.3 166.7 241.6C165.3 243.6 165.5 244.5 165.5 244.5C165.5 244.5 165.3 245.4 166.7 247.4C167.6 248.7 173.6 254 177.9 257.7C180 253.8 181.3 249.3 181.3 244.5C181.3 239.7 180 235.2 177.9 231.3Z" />
			</g>
			<g id="g187">
				<path id="path183" class="shp12" d="M156.8 257.2C154.8 255.8 153.9 256 153.9 256C153.9 256 153 255.8 151 257.2C149 258.6 137.4 272.2 137 272.9C136.6 273.6 134.8 301.4 138.3 304.3C141.8 307.2 153.9 306.9 153.9 306.9C153.9 306.9 166 307.2 169.5 304.3C173 301.4 171.2 273.6 170.8 272.9C170.4 272.1 158.8 258.6 156.8 257.2Z" />
				<path id="path185" class="shp13" d="M156.8 257.2C154.8 255.8 153.9 256 153.9 256C153.9 256 153 255.8 151 257.2C149.7 258.1 144.4 264.1 140.7 268.4C144.6 270.5 149.1 271.8 153.9 271.8C158.7 271.8 163.2 270.6 167.1 268.4C163.4 264.1 158.1 258.1 156.8 257.2Z" />
			</g>
		</g>
	</g>
	<g id="g221">
		<g id="g207">
			<path id="circle193" class="shp3" d="M403 320.6C400.73 320.6 398.9 318.77 398.9 316.5C398.9 314.23 400.73 312.4 403 312.4C405.27 312.4 407.1 314.23 407.1 316.5C407.1 318.77 405.27 320.6 403 320.6Z" />
			<path id="circle195" class="shp3" d="M403 299.7C400.73 299.7 398.9 297.87 398.9 295.6C398.9 293.33 400.73 291.5 403 291.5C405.27 291.5 407.1 293.33 407.1 295.6C407.1 297.87 405.27 299.7 403 299.7Z" />
			<path id="circle197" class="shp3" d="M396.1 309.9C393.83 309.9 392 308.07 392 305.8C392 303.53 393.83 301.7 396.1 301.7C398.37 301.7 400.2 303.53 400.2 305.8C400.2 308.07 398.37 309.9 396.1 309.9Z" />
			<path id="circle199" class="shp3" d="M381.4 309.9C379.13 309.9 377.3 308.07 377.3 305.8C377.3 303.53 379.13 301.7 381.4 301.7C383.67 301.7 385.5 303.53 385.5 305.8C385.5 308.07 383.67 309.9 381.4 309.9Z" />
			<path id="circle201" class="shp3" d="M388.7 320.6C386.43 320.6 384.6 318.77 384.6 316.5C384.6 314.23 386.43 312.4 388.7 312.4C390.97 312.4 392.8 314.23 392.8 316.5C392.8 318.77 390.97 320.6 388.7 320.6Z" />
			<path id="circle203" class="shp3" d="M388.7 299.7C386.43 299.7 384.6 297.87 384.6 295.6C384.6 293.33 386.43 291.5 388.7 291.5C390.97 291.5 392.8 293.33 392.8 295.6C392.8 297.87 390.97 299.7 388.7 299.7Z" />
			<path id="circle205" class="shp3" d="M374.4 299.7C372.13 299.7 370.3 297.87 370.3 295.6C370.3 293.33 372.13 291.5 374.4 291.5C376.67 291.5 378.5 293.33 378.5 295.6C378.5 297.87 376.67 299.7 374.4 299.7Z" />
		</g>
		<g id="g219">
			<path id="circle209" class="shp3" d="M409.9 309.9C407.63 309.9 405.8 308.07 405.8 305.8C405.8 303.53 407.63 301.7 409.9 301.7C412.17 301.7 414 303.53 414 305.8C414 308.07 412.17 309.9 409.9 309.9Z" />
			<path id="circle211" class="shp3" d="M424.6 309.9C422.33 309.9 420.5 308.07 420.5 305.8C420.5 303.53 422.33 301.7 424.6 301.7C426.87 301.7 428.7 303.53 428.7 305.8C428.7 308.07 426.87 309.9 424.6 309.9Z" />
			<path id="circle213" class="shp3" d="M417.2 320.6C414.93 320.6 413.1 318.77 413.1 316.5C413.1 314.23 414.93 312.4 417.2 312.4C419.47 312.4 421.3 314.23 421.3 316.5C421.3 318.77 419.47 320.6 417.2 320.6Z" />
			<path id="circle215" class="shp3" d="M417.2 299.7C414.93 299.7 413.1 297.87 413.1 295.6C413.1 293.33 414.93 291.5 417.2 291.5C419.47 291.5 421.3 293.33 421.3 295.6C421.3 297.87 419.47 299.7 417.2 299.7Z" />
			<path id="circle217" class="shp3" d="M431.6 299.7C429.33 299.7 427.5 297.87 427.5 295.6C427.5 293.33 429.33 291.5 431.6 291.5C433.87 291.5 435.7 293.33 435.7 295.6C435.7 297.87 433.87 299.7 431.6 299.7Z" />
		</g>
	</g>
	<g id="g247" style="opacity: 0.122">
		<path id="path223" class="shp1" d="M403 319.6C400.9 319.6 399.2 318 398.9 316C398.9 316.2 398.8 316.3 398.8 316.5C398.8 318.8 400.6 320.6 402.9 320.6C405.2 320.6 407 318.8 407 316.5C407 316.3 407 316.2 406.9 316C406.8 318 405.1 319.6 403 319.6Z" />
		<path id="path225" class="shp1" d="M403 299.7C405.3 299.7 407.1 297.9 407.1 295.6C407.1 295.4 407.1 295.3 407 295.1C406.8 297.1 405 298.7 402.9 298.7C400.8 298.7 399.1 297.1 398.8 295.1C398.8 295.3 398.7 295.4 398.7 295.6C398.9 297.8 400.7 299.7 403 299.7Z" />
		<path id="path227" class="shp1" d="M400.2 305.8C400.2 305.6 400.2 305.5 400.1 305.3C399.9 307.3 398.1 308.9 396 308.9C393.9 308.9 392.2 307.3 391.9 305.3C391.9 305.5 391.8 305.6 391.8 305.8C391.8 308.1 393.6 309.9 395.9 309.9C398.3 309.9 400.2 308.1 400.2 305.8Z" />
		<path id="path229" class="shp1" d="M385.4 305.3C385.2 307.3 383.4 308.9 381.3 308.9C379.2 308.9 377.5 307.3 377.2 305.3C377.2 305.5 377.1 305.6 377.1 305.8C377.1 308.1 378.9 309.9 381.2 309.9C383.5 309.9 385.3 308.1 385.3 305.8C385.5 305.6 385.5 305.5 385.4 305.3Z" />
		<path id="path231" class="shp1" d="M388.8 319.6C386.7 319.6 385 318 384.7 316C384.7 316.2 384.6 316.3 384.6 316.5C384.6 318.8 386.4 320.6 388.7 320.6C391 320.6 392.8 318.8 392.8 316.5C392.8 316.3 392.8 316.2 392.7 316C392.6 318 390.9 319.6 388.8 319.6Z" />
		<path id="path233" class="shp1" d="M388.8 299.7C391.1 299.7 392.9 297.9 392.9 295.6C392.9 295.4 392.9 295.3 392.8 295.1C392.6 297.1 390.8 298.7 388.7 298.7C386.6 298.7 384.9 297.1 384.6 295.1C384.6 295.3 384.5 295.4 384.5 295.6C384.6 297.8 386.5 299.7 388.8 299.7Z" />
		<path id="path235" class="shp1" d="M378.6 295.6C378.6 295.4 378.6 295.3 378.5 295.1C378.3 297.1 376.5 298.7 374.4 298.7C372.3 298.7 370.6 297.1 370.3 295.1C370.3 295.3 370.2 295.4 370.2 295.6C370.2 297.9 372 299.7 374.3 299.7C376.7 299.7 378.6 297.8 378.6 295.6Z" />
		<path id="path237" class="shp1" d="M414 305.3C413.8 307.3 412 308.9 409.9 308.9C407.8 308.9 406.1 307.3 405.8 305.3C405.8 305.5 405.7 305.6 405.7 305.8C405.7 308.1 407.5 309.9 409.8 309.9C412.1 309.9 413.9 308.1 413.9 305.8C414.1 305.6 414 305.5 414 305.3Z" />
		<path id="path239" class="shp1" d="M424.6 308.9C422.5 308.9 420.8 307.3 420.5 305.3C420.5 305.5 420.4 305.6 420.4 305.8C420.4 308.1 422.2 309.9 424.5 309.9C426.8 309.9 428.6 308.1 428.6 305.8C428.6 305.6 428.6 305.5 428.5 305.3C428.5 307.4 426.7 308.9 424.6 308.9Z" />
		<path id="path241" class="shp1" d="M417.3 319.6C415.2 319.6 413.5 318 413.2 316C413.2 316.2 413.1 316.3 413.1 316.5C413.1 318.8 414.9 320.6 417.2 320.6C419.5 320.6 421.3 318.8 421.3 316.5C421.3 316.3 421.3 316.2 421.2 316C421.1 318 419.4 319.6 417.3 319.6Z" />
		<path id="path243" class="shp1" d="M417.3 299.7C419.6 299.7 421.4 297.9 421.4 295.6C421.4 295.4 421.4 295.3 421.3 295.1C421.1 297.1 419.3 298.7 417.2 298.7C415.1 298.7 413.4 297.1 413.1 295.1C413.1 295.3 413 295.4 413 295.6C413.1 297.8 415 299.7 417.3 299.7Z" />
		<path id="path245" class="shp1" d="M431.6 298.7C429.5 298.7 427.8 297.1 427.5 295.1C427.5 295.3 427.4 295.4 427.4 295.6C427.4 297.9 429.2 299.7 431.5 299.7C433.8 299.7 435.6 297.9 435.6 295.6C435.6 295.4 435.6 295.3 435.5 295.1C435.4 297.1 433.7 298.7 431.6 298.7Z" />
	</g>
	<path id="path249" class="shp14" d="M436.6 421.1L368.7 421.1C365.9 421.1 364.1 421.7 364.1 418.9L364.1 418.9C364.1 416.1 366.4 413.9 369.1 413.9L437 413.9C439.8 413.9 442 416.2 442 418.9L442 418.9C442.1 421.6 439.4 421.1 436.6 421.1Z" />
	<path id="path251" class="shp3" d="M408.3 418.9L371.8 418.9C371.3 418.9 370.9 418.5 370.9 418L370.9 418C370.9 416.9 371.8 416 372.9 416L407.1 416C408.2 416 409.1 416.9 409.1 418L409.1 418C409.2 418.5 408.8 418.9 408.3 418.9Z" />
	<path id="path253" class="shp3" d="M430.5 419.7L426.3 419.7C425.4 419.7 424.6 418.9 424.6 418L424.6 418C424.6 416.4 425.9 415.2 427.4 415.2L429.3 415.2C430.9 415.2 432.1 416.5 432.1 418L432.1 418C432.2 419 431.5 419.7 430.5 419.7Z" />
	<g id="g264">
		<g id="g262">
			<path id="path255" class="shp15" d="M530.4 124.4C530.4 123.4 529.6 122.5 528.5 122.5L403 122.5L403 122.5L277.4 122.5C276.4 122.5 275.5 123.3 275.5 124.4L275.5 130.4L275.5 253.6C275.5 262.2 282.5 269.2 291.1 269.2L403 269.2L403 269.2L514.9 269.2C523.5 269.2 530.5 262.2 530.5 253.6L530.5 130.5L530.4 124.4Z" />
			<g id="g260" style="opacity: 0.122">
				<path id="path258" class="shp16" d="M275.5 253.6C275.5 262.2 282.5 269.2 291.1 269.2L403 269.2L403 269.2L514.9 269.2C523.5 269.2 530.5 262.2 530.5 253.6L530.5 147.1L275.5 147.1L275.5 253.6Z" />
			</g>
		</g>
	</g>
	<g id="g308">
		<g id="g306">
			<g id="g274">
				<g id="g270">
					<path id="path266" class="shp3" d="M709.9 271.1C695.4 271.1 683.6 259.3 683.6 244.8C683.6 230.3 695.4 218.5 709.9 218.5C724.4 218.5 736.2 230.3 736.2 244.8C736.2 259.3 724.4 271.1 709.9 271.1Z" />
					<path id="path268" fill-rule="evenodd" class="shp1" d="M709.9 217.6C724.9 217.6 737.2 229.8 737.2 244.9C737.2 260 725 272.2 709.9 272.2C694.8 272.2 682.6 260 682.6 244.9C682.6 229.8 694.9 217.6 709.9 217.6ZM684.6 244.8C684.6 258.8 695.9 270.1 709.9 270.1C723.9 270.1 735.2 258.9 735.2 244.9C735.2 230.9 723.8 219.6 709.9 219.6C696 219.6 684.6 230.8 684.6 244.8Z" />
				</g>
				<path id="path272" fill-rule="evenodd" class="shp1" d="M728.8 244.9C728.8 255.3 720.3 263.8 709.9 263.8C699.5 263.8 691 255.3 691 244.9C691 234.5 699.5 226 709.9 226C720.4 226 728.8 234.5 728.8 244.9ZM725.9 244.9C725.9 236.1 718.7 228.9 709.9 228.9C701.1 228.9 693.9 236 693.9 244.9C693.9 253.7 701 260.9 709.9 260.9C718.8 260.9 726 253.8 725.9 244.9Z" />
			</g>
			<g id="g284">
				<g id="g280">
					<path id="path276" class="shp3" d="M652.3 328.7C637.8 328.7 626 316.9 626 302.4C626 287.9 637.8 276.1 652.3 276.1C666.8 276.1 678.6 287.9 678.6 302.4C678.6 316.9 666.8 328.7 652.3 328.7Z" />
					<path id="path278" fill-rule="evenodd" class="shp1" d="M652.3 275.2C667.4 275.2 679.6 287.5 679.6 302.5C679.6 317.6 667.4 329.8 652.3 329.8C637.2 329.8 625 317.5 625 302.5C625 287.4 637.3 275.2 652.3 275.2ZM627 302.5C627 316.5 638.3 327.8 652.3 327.8C666.3 327.8 677.6 316.5 677.6 302.5C677.6 288.5 666.2 277.2 652.3 277.2C638.4 277.2 627 288.5 627 302.5Z" />
				</g>
				<path id="polygon282" class="shp1" d="M666.7 290.1L664.7 288.1L652.3 300.5L640 288.1L638 290.1L650.3 302.5L638 314.8L640 316.8L652.3 304.5L664.7 316.8L666.7 314.8L654.3 302.5L666.7 290.1Z" />
			</g>
			<g id="g294">
				<g id="g290">
					<path id="path286" class="shp17" d="M594.8 271.1C580.3 271.1 568.5 259.3 568.5 244.8C568.5 230.3 580.3 218.5 594.8 218.5C609.3 218.5 621.1 230.3 621.1 244.8C621.1 259.3 609.2 271.1 594.8 271.1Z" />
					<path id="path288" fill-rule="evenodd" class="shp1" d="M594.7 217.6C609.8 217.6 622 229.8 622 244.9C622 260 609.8 272.2 594.7 272.2C579.6 272.2 567.4 260 567.4 244.9C567.4 229.8 579.7 217.6 594.7 217.6ZM569.4 244.8C569.4 258.8 580.7 270.1 594.7 270.1C608.7 270.1 620 258.9 620 244.9C620 230.9 608.6 219.6 594.7 219.6C580.8 219.6 569.4 230.8 569.4 244.8Z" />
				</g>
				<path id="path292" fill-rule="evenodd" class="shp1" d="M609.1 230.5L609.1 259.1L580.5 259.1L580.5 230.5L609.1 230.5ZM606.3 233.4L583.3 233.4L583.3 256.4L606.3 256.4L606.3 233.4Z" />
			</g>
			<g id="g304">
				<g id="g300">
					<path id="path296" class="shp3" d="M652.3 213.6C637.8 213.6 626 201.8 626 187.3C626 172.8 637.8 161 652.3 161C666.8 161 678.6 172.8 678.6 187.3C678.6 201.8 666.8 213.6 652.3 213.6Z" />
					<path id="path298" fill-rule="evenodd" class="shp1" d="M652.3 160.1C667.4 160.1 679.6 172.3 679.6 187.4C679.6 202.5 667.4 214.7 652.3 214.7C637.2 214.7 625 202.5 625 187.4C625 172.3 637.3 160.1 652.3 160.1ZM627 187.4C627 201.4 638.3 212.7 652.3 212.7C666.3 212.7 677.6 201.4 677.6 187.4C677.6 173.4 666.2 162.1 652.3 162.1C638.4 162.1 627 173.4 627 187.4Z" />
				</g>
				<path id="path302" fill-rule="evenodd" class="shp1" d="M669.9 198.1L634.7 198.1L636.3 195.3L652.3 167.7L668.3 195.3L669.9 198.1ZM665 195.3L652.3 173.4L639.6 195.3L665 195.3Z" />
			</g>
		</g>
	</g>
	<g id="g320">
		<path id="circle310" class="shp18" d="M403 382.3C391.83 382.3 382.8 373.27 382.8 362.1C382.8 350.93 391.83 341.9 403 341.9C414.17 341.9 423.2 350.93 423.2 362.1C423.2 373.27 414.17 382.3 403 382.3Z" />
		<g id="g318">
			<path id="path312" class="shp19" d="M404.1 368.7L404.1 365.9L404.1 362.4L404.1 355.9C404.1 355.4 404.2 355.1 404.4 354.9C404.5 354.7 404.8 354.6 405.1 354.7C405.7 354.9 406 355.4 406 356.4L406 363.3C406.8 363.7 407.5 363.8 408.1 363.8C408.7 363.8 409.3 363.6 409.7 363.3C410.7 362.6 411.2 361.4 411.2 359.6C411.2 357.7 410.8 356.2 410 355.3C409.2 354.3 407.9 353.4 405.9 352.7C404.6 352.3 403.4 351.9 402.3 351.6C401.2 351.3 400.3 351.1 399.4 350.9L399.4 363.1L399.4 363.1L399.4 365.8L399.4 365.8L399.4 367.5L399.4 367.5L399.4 370L399.4 370L399.4 371.5L404.1 373L404.1 369.4L404.1 369.4L404.1 368.7Z" />
			<path id="path314" class="shp19" d="M399 367.7L397.3 368.3L396.4 368.7L394.8 369L393.3 368.8C393 368.6 392.9 368.4 393.1 368.2C393.2 368.1 393.3 368.1 393.4 368C393.5 367.9 393.7 367.9 393.8 367.8L394.9 367.4L399 365.9L399 363.2L397.3 363.7L391.8 365.7L390.8 366.1C389.3 366.7 388.6 367.3 388.6 367.9C388.7 368.7 389.6 369.4 391.3 369.8C392 370 392.7 370.1 393.4 370.2C394.1 370.3 394.8 370.3 395.6 370.3C396.6 370.3 397.7 370.2 398.9 370L398.9 367.7L399 367.7Z" />
			<path id="path316" class="shp19" d="M414.8 365.4C413.9 365.1 413.1 364.9 412.3 364.8C411.5 364.7 410.6 364.6 409.8 364.7C408.9 364.7 407.9 364.9 407 365C406.2 365.2 405.3 365.4 404.4 365.8L404.4 368.6L408.3 367.2L409.9 366.7L411 366.4L412.4 366.4C412.7 366.5 413 366.6 413.1 366.8C413.1 367 412.9 367.2 412.3 367.4L410.9 367.9L404.4 370.3L404.4 373L407.9 371.7L414.3 369.4L415 369C416.5 368.5 417.2 367.8 417.2 367.1C417.2 366.5 416.4 365.9 414.8 365.4Z" />
		</g>
	</g>
	<g id="g338">
		<g id="g328">
			<g id="g326">
				<path id="path322" class="shp3" d="M697.2 110C697.2 109.2 696.8 108.5 696.1 108.1C691.6 105.2 672.7 94.5 644.6 94.5C617.7 94.5 603.5 100.4 599.5 102.5C598.7 102.9 598.3 103.7 598.3 104.5C598.3 104.5 608.1 101.6 645.8 101.6C683.5 101.6 697.2 110 697.2 110Z" />
				<path id="path324" class="shp3" d="M697.1 116.9L697.1 116.9L697.1 110C697.1 110 683.4 101.6 645.7 101.6C607.9 101.6 598.2 104.5 598.2 104.5L598.2 115.5L598.2 115.5C605.9 114.2 619.4 112.9 642.3 112.9C670.8 113 688.2 115.3 697.1 116.9Z" />
			</g>
		</g>
		<g id="g336">
			<g id="g334">
				<path id="path330" class="shp20" d="M108.8 110C108.8 109.2 109.2 108.5 109.9 108.1C114.4 105.2 133.3 94.5 161.4 94.5C188.3 94.5 202.5 100.4 206.5 102.5C207.3 102.9 207.7 103.7 207.7 104.5C207.7 104.5 197.9 101.6 160.2 101.6C122.5 101.6 108.8 110 108.8 110Z" />
				<path id="path332" class="shp3" d="M108.9 116.9L108.9 116.9L108.9 110C108.9 110 122.6 101.6 160.3 101.6C198.1 101.6 207.8 104.5 207.8 104.5L207.8 115.5L207.8 115.5C200.1 114.2 186.6 112.9 163.7 112.9C135.2 113 117.8 115.3 108.9 116.9Z" />
			</g>
		</g>
	</g>
	<g id="g376">
		<g id="g356">
			<g id="g354">
				<g id="g344">
					<path id="path340" class="shp3" d="M697.2 90.9C697.2 90.9 664.5 87.7 646.6 87.7C628.7 87.7 598.2 90.1 598.2 90.1C598.2 90.1 601.3 45.4 603 38.1C604.6 30.8 610.7 16.8 619.9 10.2C629.1 3.6 631.8 0.1 642.6 0.1C653.4 0.1 668 6.5 677.2 21.5C686.5 36.5 697.2 90.9 697.2 90.9Z" />
					<path id="path342" class="shp21" d="M598.7 83.3C598.7 83.3 624.8 78.9 647.7 78.9C670.5 78.9 695.6 83.3 695.6 83.3C696.6 88 697.2 90.9 697.2 90.9C697.2 90.9 664.5 87.7 646.6 87.7C628.7 87.7 598.2 90.1 598.2 90.1C598.2 90.1 598.4 87.4 598.7 83.3Z" />
				</g>
				<g id="g352" style="opacity: 0.078">
					<g id="g348">
						<path id="path346" class="shp1" d="M648.7 65.8C646.6 67.5 645.5 68.4 645.5 68.4C644.3 69.6 643.6 71.1 643.5 72.9L653.3 72.9L653.3 70.3L647 70.3C647.3 69.8 648 69.1 649.1 68.4C650.5 67.5 651.4 66.8 651.8 66.3C652.7 65.3 653.1 64.2 653.1 63C653.1 61.6 652.6 60.5 651.7 59.7C650.8 58.9 649.6 58.5 648.2 58.5C645.1 58.5 643.5 60.2 643.5 63.5L646.2 63.5C646.2 61.7 646.9 60.8 648.3 60.8C649.6 60.8 650.3 61.5 650.3 62.9C650.5 64 649.9 64.9 648.7 65.8Z" />
					</g>
					<path id="path350" fill-rule="evenodd" class="shp1" d="M631.1 73L628.1 73L628.1 58.7L635.4 58.7C636.7 58.7 637.8 59 638.6 59.7C639.5 60.4 639.9 61.4 639.9 62.7C639.9 64.5 639.1 65.6 637.7 66.1C638.9 66.7 639.5 67.9 639.5 69.6L639.5 70.3C639.4 70.7 639.4 70.9 639.4 71.1C639.4 71.9 639.6 72.4 640.1 72.6L640.1 73L636.8 73C636.7 71.7 636.6 70.4 636.5 69.2C636.4 67.9 635.6 67.3 634.1 67.3L631.1 67.3L631.1 73ZM631.1 61.1L631.1 64.9L634.6 64.9C636.1 64.9 636.9 64.3 636.9 63C636.9 61.7 636.2 61.1 634.8 61.1L631.1 61.1Z" />
				</g>
			</g>
		</g>
		<g id="g374">
			<g id="g372">
				<g id="g362">
					<path id="path358" class="shp20" d="M108.8 90.9C108.8 90.9 141.5 87.7 159.4 87.7C177.3 87.7 207.7 90.1 207.7 90.1C207.7 90.1 204.6 45.4 202.9 38.1C201.3 30.8 195.2 16.8 186 10.2C176.9 3.5 174.2 0.1 163.4 0.1C152.6 0.1 138 6.5 128.8 21.5C119.6 36.5 108.8 90.9 108.8 90.9Z" />
					<path id="path360" class="shp21" d="M207.3 83.3C207.3 83.3 181.2 78.9 158.3 78.9C135.5 78.9 110.4 83.3 110.4 83.3C109.4 88 108.8 90.9 108.8 90.9C108.8 90.9 141.5 87.7 159.4 87.7C177.3 87.7 207.7 90.1 207.7 90.1C207.7 90.1 207.6 87.4 207.3 83.3Z" />
				</g>
				<g id="g370" style="opacity: 0.078">
					<g id="g366">
						<path id="path364" class="shp1" d="M173.3 65.8C171.2 67.5 170.1 68.4 170.1 68.4C168.9 69.6 168.2 71.1 168.1 72.9L177.9 72.9L177.9 70.3L171.7 70.3C172 69.8 172.7 69.1 173.8 68.4C175.2 67.5 176.1 66.8 176.5 66.3C177.4 65.3 177.8 64.2 177.8 63C177.8 61.6 177.3 60.5 176.4 59.7C175.5 58.9 174.3 58.5 172.9 58.5C169.8 58.5 168.2 60.2 168.2 63.5L170.9 63.5C170.9 61.7 171.6 60.8 173 60.8C174.3 60.8 175 61.5 175 62.9C175.1 64 174.5 64.9 173.3 65.8Z" />
					</g>
					<path id="polygon368" class="shp1" d="M164.8 70.3L157.8 70.3L157.8 58.6L154.7 58.6L154.7 72.9L164.8 72.9L164.8 70.3Z" />
				</g>
			</g>
		</g>
	</g>
	<g id="g406">
		<g id="g392">
			<path id="path378" fill-rule="evenodd" class="shp22" d="M547.6 134.7C547.6 136.8 546.1 138.5 543.5 138.5C540.9 138.5 539.4 136.8 539.4 134.7C539.4 132.7 540.9 130.9 543.5 130.9C546.1 130.9 547.6 132.6 547.6 134.7ZM540.9 134.7C540.9 136.1 541.7 137.4 543.5 137.4C545.3 137.4 546.1 136 546.1 134.7C546.1 133.3 545.3 132 543.5 132C541.7 132 540.9 133.3 540.9 134.7Z" />
			<path id="path380" fill-rule="evenodd" class="shp22" d="M548.9 131.1L552.7 131.1C555.1 131.1 555.6 132.4 555.6 133.3C555.6 134.2 555.1 135.5 552.7 135.5L550.4 135.5L550.4 138.3L548.9 138.3L548.9 131.1ZM550.4 134.5L552.6 134.5C553.3 134.5 554.1 134.2 554.1 133.3C554.1 132.4 553.4 132.1 552.6 132.1L550.4 132.1L550.4 134.5Z" />
			<path id="path382" class="shp22" d="M556.1 131.1L563 131.1L563 132.2L560.3 132.2L560.3 138.3L558.8 138.3L558.8 132.1L556.1 132.1L556.1 131.1L556.1 131.1Z" />
			<path id="path384" class="shp22" d="M564.1 131.1L565.6 131.1L565.6 138.3L564.1 138.3L564.1 131.1Z" />
			<path id="path386" fill-rule="evenodd" class="shp22" d="M575.1 134.7C575.1 136.8 573.6 138.5 571 138.5C568.4 138.5 566.9 136.8 566.9 134.7C566.9 132.7 568.4 130.9 571 130.9C573.6 130.9 575.1 132.6 575.1 134.7ZM568.4 134.7C568.4 136.1 569.2 137.4 571 137.4C572.8 137.4 573.6 136 573.6 134.7C573.6 133.3 572.8 132 571 132C569.2 132 568.4 133.3 568.4 134.7Z" />
			<path id="path388" class="shp22" d="M576.5 131.1L578.1 131.1L582 136.4L582 136.4L582 131.1L583.4 131.1L583.4 138.3L581.8 138.3L577.9 133L577.9 133L577.9 138.3L576.5 138.3L576.5 131.1Z" />
			<path id="path390" class="shp22" d="M586.2 135.9C586.2 137 587.2 137.4 588.4 137.4C589.7 137.4 590.2 136.8 590.2 136.3C590.2 135.7 589.8 135.5 589.5 135.4C588.9 135.2 588.1 135.1 586.9 134.8C585.4 134.5 585 133.7 585 133C585 131.5 586.6 130.9 588.1 130.9C589.9 130.9 591.4 131.7 591.4 133.2L589.9 133.2C589.8 132.3 589.1 131.9 588.1 131.9C587.4 131.9 586.5 132.1 586.5 132.8C586.5 133.3 586.9 133.6 587.5 133.7C587.6 133.7 589.5 134.1 590 134.3C591.1 134.6 591.7 135.4 591.7 136.1C591.7 137.7 590 138.4 588.3 138.4C586.3 138.4 584.8 137.6 584.7 135.8L586.2 135.8L586.2 135.9Z" />
		</g>
		<g id="g404">
			<path id="path394" class="shp22" d="M222.2 135.9C222.2 137 223.2 137.4 224.4 137.4C225.7 137.4 226.2 136.8 226.2 136.3C226.2 135.7 225.8 135.5 225.5 135.4C224.9 135.2 224.1 135.1 222.9 134.8C221.4 134.5 221 133.7 221 133C221 131.5 222.6 130.9 224.1 130.9C225.9 130.9 227.4 131.7 227.4 133.2L225.9 133.2C225.8 132.3 225.1 131.9 224.1 131.9C223.4 131.9 222.5 132.1 222.5 132.8C222.5 133.3 222.9 133.6 223.5 133.7C223.6 133.7 225.5 134.1 226 134.3C227.1 134.6 227.7 135.4 227.7 136.1C227.7 137.7 226 138.4 224.3 138.4C222.3 138.4 220.8 137.6 220.7 135.8L222.2 135.8L222.2 135.9Z" />
			<path id="path396" class="shp22" d="M228.9 131.1L230.4 131.1L230.4 134L234.3 134L234.3 131.1L235.8 131.1L235.8 138.3L234.3 138.3L234.3 135.1L230.4 135.1L230.4 138.3L228.9 138.3L228.9 131.1Z" />
			<path id="path398" fill-rule="evenodd" class="shp22" d="M239.9 131.1L241.5 131.1L244.8 138.3L243.2 138.3L242.4 136.4L239 136.4L238.2 138.3L236.7 138.3L239.9 131.1ZM239.4 135.4L242 135.4L240.7 132.3L239.4 135.4Z" />
			<path id="path400" fill-rule="evenodd" class="shp22" d="M249.7 131.1C251.6 131.1 252.5 131.8 252.5 133C252.5 134.4 251.4 134.7 251.1 134.8C251.6 134.9 252.4 135.2 252.4 136.3C252.4 137.1 252.5 137.9 252.9 138.2L251.3 138.2C251.1 137.9 251.1 137.5 251.1 137.1C251.1 135.8 250.8 135.2 249.4 135.2L247.2 135.2L247.2 138.2L245.7 138.2L245.7 131.1L249.7 131.1ZM249.6 134.3C250.6 134.3 251.1 133.9 251.1 133.2C251.1 132.3 250.4 132.1 249.6 132.1L247.2 132.1L247.2 134.3L249.6 134.3Z" />
			<path id="path402" class="shp22" d="M254.1 131.1L260.3 131.1L260.3 132.2L255.6 132.2L255.6 134.1L259.9 134.1L259.9 135.1L255.6 135.1L255.6 137.2L260.3 137.2L260.3 138.3L254.1 138.3L254.1 131.1L254.1 131.1Z" />
		</g>
	</g>
	<path id="rect1031" class="shp3" d="M810.33 3.94L1616.33 3.94L1616.33 602.94L810.33 602.94L810.33 3.94Z" />
	<path id="rect1762" class="shp3" d="M845.89 -1.61L1651.89 -1.61L1651.89 597.39L845.89 597.39L845.89 -1.61Z" />
	<path id="rect1283" class="shp3" d="M814.92 -6.44L1620.92 -6.44L1620.92 592.56L814.92 592.56L814.92 -6.44Z" />
</svg>