<svg xmlns="http://www.w3.org/2000/svg" viewBox="0 0 169 84" width="169" height="84">
	<style>
		tspan { white-space:pre }
		.shp0 { fill: #003f6f } 
		.shp1 { fill: #004270 } 
		.shp2 { fill: #002541 } 
		.shp3 { fill: #ffffff } 
		.shp4 { fill: #eeeeee } 
	</style>
	<g id="g22">
		<g id="g6">
			<path id="path2" class="shp0" d="M168.77 41.7C168.77 64.72 150.11 83.38 127.07 83.38C104.05 83.38 85.39 64.72 85.39 41.7C85.39 18.66 104.05 0 127.07 0C150.1 0 168.77 18.66 168.77 41.7Z" />
		</g>
		<g id="g10">
			<path id="path8" fill-rule="evenodd" class="shp1" d="M127.07 0C150.1 0 168.77 18.66 168.77 41.7C168.77 64.72 150.11 83.38 127.07 83.38C104.05 83.38 85.38 64.72 85.38 41.7C85.38 18.66 104.05 0 127.07 0ZM87.38 41.7C87.38 63.58 105.19 81.38 127.07 81.38C148.96 81.38 166.77 63.58 166.77 41.7C166.77 19.81 148.96 2 127.07 2C105.19 2 87.39 19.81 87.38 41.7Z" />
		</g>
		<g id="g14" style="opacity: 0.059">
		</g>
		<g id="g20">
			<path id="path16" class="shp2" d="M127.07 69.83C111.56 69.83 98.95 57.21 98.95 41.7C98.95 26.2 111.56 13.58 127.07 13.58C142.58 13.58 155.2 26.2 155.2 41.7C155.2 57.21 142.58 69.83 127.07 69.83Z" />
			<path id="path18" fill-rule="evenodd" class="shp2" d="M127.07 10.58C144.27 10.58 158.2 24.51 158.2 41.7C158.2 58.89 144.27 72.83 127.07 72.83C109.88 72.83 95.95 58.89 95.95 41.7C95.95 24.51 109.88 10.58 127.07 10.58ZM101.95 41.7C101.95 55.56 113.22 66.83 127.07 66.83C140.93 66.83 152.2 55.56 152.2 41.7C152.2 27.85 140.92 16.58 127.07 16.58C113.22 16.58 101.95 27.85 101.95 41.7Z" />
		</g>
	</g>
	<g id="LS_pressed">
		<g id="g28">
			<path id="path24" class="shp3" d="M83.39 41.7C83.39 64.72 64.72 83.38 41.69 83.38C18.66 83.38 0 64.72 0 41.7C0 18.66 18.66 0 41.69 0C64.72 0 83.39 18.66 83.39 41.7Z" />
			<path id="path26" class="shp3" d="M41.69 0C41.67 0 41.66 0 41.65 0C41.65 0 41.65 0 41.64 0C41.63 0 41.63 0 41.62 0C41.61 0 41.61 0 41.61 0C41.6 0 41.59 0 41.59 0C41.58 0 41.58 0 41.57 0C41.57 0 41.56 0 41.55 0C41.55 0 41.54 0 41.54 0C41.53 0 41.53 0 41.52 0C41.52 0 41.51 0 41.51 0C41.5 0 41.49 0 41.49 0C41.48 0 41.48 0 41.47 0C41.47 0 41.46 0 41.45 0C41.45 0 41.45 0 41.44 0C41.43 0 41.43 0 41.42 0C41.42 0 41.41 0 41.41 0C41.4 0 41.4 0 41.39 0C41.38 0 41.38 0 41.37 0C41.37 0 41.36 0 41.36 0C41.35 0 41.35 0 41.34 0C41.34 0 41.33 0 41.32 0C41.32 0 41.31 0 41.31 0C41.3 0 41.29 0 41.29 0C41.28 0 41.28 0 41.27 0C41.27 0 41.26 0 41.25 0C41.25 0 41.25 0 41.24 0C41.23 0 41.22 0 41.21 0C41.21 0 41.2 0 41.2 0C41.19 0 41.19 0 41.18 0C41.17 0 41.17 0 41.16 0C41.16 0 41.15 0 41.15 0C41.14 0 41.13 0 41.13 0C41.12 0 41.12 0 41.11 0C41.11 0 41.1 0 41.09 0C41.09 0 41.09 0 41.08 0C41.07 0 41.07 0 41.06 0C41.06 0 41.05 0 41.05 0C41.04 0 41.03 0 41.03 0C41.02 0 41.02 0 41.01 0C41.01 0 41 0 41 0C40.99 0 40.99 0 40.98 0C40.98 0 40.97 0 40.96 0C40.96 0 40.95 0 40.95 0C40.94 0 40.94 0 40.93 0C40.93 0 40.92 0 40.92 0C40.91 0 40.9 0 40.9 0C40.89 0 40.89 0 40.89 0C40.88 0 40.87 0 40.86 0C40.86 0 40.86 0 40.86 0C40.85 0 40.84 0 40.83 0C40.83 0 40.83 0 40.83 0C40.78 0 40.73 0 40.68 0C40.68 0 40.68 0 40.67 0C40.67 0 40.66 0 40.65 0C40.65 0 40.64 0 40.64 0C40.63 0 40.62 0 40.62 0C40.61 0 40.61 0 40.61 0C40.6 0 40.59 0 40.58 0.01C40.58 0.01 40.58 0.01 40.58 0.01C40.57 0.01 40.56 0.01 40.55 0.01C40.55 0.01 40.55 0.01 40.55 0.01C40.54 0.01 40.53 0.01 40.52 0.01L40.52 0.01C40.51 0.01 40.5 0.01 40.49 0.01L40.49 0.01C40.47 0.01 40.45 0.01 40.43 0.01L40.43 0.01C40.18 0.02 39.93 0.03 39.68 0.04L40.62 20.02C40.98 20.01 41.33 20 41.69 20L41.69 0L41.69 0L41.69 0ZM37.69 0.19C37.63 0.19 37.58 0.2 37.52 0.21L37.52 0.21C37.51 0.21 37.5 0.21 37.49 0.21C37.49 0.21 37.49 0.21 37.48 0.21C37.48 0.21 37.47 0.21 37.46 0.21C37.46 0.21 37.45 0.21 37.45 0.21C37.44 0.21 37.44 0.21 37.43 0.21C37.43 0.21 37.42 0.22 37.41 0.22C37.41 0.22 37.41 0.22 37.4 0.22C37.4 0.22 37.39 0.22 37.38 0.22L37.38 0.22C36.82 0.28 36.26 0.35 35.7 0.43L38.55 20.22C38.89 20.17 39.24 20.13 39.58 20.1L37.69 0.19L37.69 0.19ZM33.73 0.76C33.7 0.76 33.67 0.77 33.64 0.78C33.64 0.78 33.64 0.78 33.64 0.78C33.63 0.78 33.62 0.78 33.61 0.78C33.61 0.78 33.61 0.78 33.61 0.78C33.6 0.78 33.59 0.79 33.58 0.79C33.58 0.79 33.58 0.79 33.58 0.79C33.57 0.79 33.56 0.79 33.55 0.79C33.55 0.79 33.55 0.79 33.54 0.79C33.54 0.8 33.53 0.8 33.52 0.8C33.52 0.8 33.52 0.8 33.51 0.8C33.51 0.8 33.5 0.8 33.49 0.8C33.49 0.8 33.48 0.81 33.48 0.81C33.47 0.81 33.47 0.81 33.46 0.81C33.46 0.81 33.45 0.81 33.45 0.81C33.44 0.81 33.44 0.81 33.43 0.82C33.43 0.82 33.42 0.82 33.42 0.82C33.41 0.82 33.41 0.82 33.4 0.82C33.4 0.82 33.39 0.82 33.38 0.82C33.38 0.83 33.38 0.83 33.37 0.83C33.36 0.83 33.36 0.83 33.35 0.83C33.35 0.83 33.34 0.83 33.34 0.83C33.33 0.83 33.33 0.84 33.32 0.84C33.32 0.84 33.31 0.84 33.31 0.84C33.3 0.84 33.29 0.84 33.29 0.84C33.28 0.84 33.28 0.84 33.28 0.84C33.27 0.85 33.26 0.85 33.25 0.85C33.25 0.85 33.25 0.85 33.25 0.85C33.24 0.85 33.23 0.85 33.22 0.86L33.22 0.86C32.73 0.96 32.25 1.06 31.78 1.18L36.51 20.61C36.85 20.53 37.19 20.45 37.52 20.39L33.73 0.76L33.73 0.76ZM29.85 1.71C29.58 1.79 29.31 1.87 29.04 1.95L29.04 1.95C29.02 1.96 29 1.96 28.98 1.97L28.98 1.97C28.96 1.98 28.94 1.98 28.93 1.99C28.92 1.99 28.92 1.99 28.92 1.99C28.91 1.99 28.89 2 28.87 2.01C28.56 2.11 28.25 2.21 27.94 2.32L34.53 21.2C34.86 21.09 35.19 20.98 35.52 20.89L29.85 1.71L29.85 1.71ZM26.07 3.02C25.45 3.27 24.84 3.54 24.24 3.82L32.62 21.97C32.93 21.83 33.25 21.69 33.57 21.56L26.07 3.02L26.07 3.02ZM22.44 4.7C21.85 5.01 21.27 5.33 20.69 5.67L30.78 22.93C31.08 22.76 31.38 22.59 31.69 22.43L22.44 4.7L22.44 4.7ZM18.99 6.71C18.43 7.08 17.88 7.46 17.34 7.84L29.04 24.07C29.32 23.87 29.61 23.67 29.89 23.48L18.99 6.71L18.99 6.71ZM15.75 9.05C15.22 9.47 14.71 9.9 14.21 10.34L27.4 25.37C27.66 25.14 27.93 24.92 28.2 24.7L15.75 9.05L15.75 9.05ZM12.74 11.69C12.46 11.96 12.18 12.24 11.9 12.53C11.9 12.53 11.9 12.53 11.9 12.53C11.89 12.53 11.88 12.54 11.88 12.55C11.87 12.55 11.87 12.55 11.87 12.55C11.87 12.56 11.86 12.56 11.86 12.57C11.85 12.57 11.85 12.57 11.85 12.58C11.84 12.58 11.84 12.59 11.84 12.59C11.83 12.59 11.83 12.6 11.82 12.6C11.82 12.6 11.82 12.61 11.81 12.61C11.81 12.62 11.8 12.62 11.8 12.63C11.8 12.63 11.8 12.63 11.79 12.63C11.79 12.64 11.78 12.65 11.77 12.65C11.77 12.65 11.77 12.65 11.77 12.66C11.62 12.81 11.48 12.96 11.34 13.11L25.9 26.82C26.13 26.57 26.38 26.32 26.63 26.08L12.74 11.69L12.74 11.69ZM10 14.6C10 14.6 9.99 14.61 9.99 14.61C9.99 14.61 9.98 14.62 9.98 14.62C9.98 14.63 9.97 14.63 9.97 14.63C9.97 14.64 9.96 14.64 9.96 14.65C9.96 14.65 9.95 14.66 9.95 14.66C9.95 14.66 9.94 14.67 9.94 14.67C9.94 14.68 9.93 14.68 9.93 14.68C9.93 14.69 9.92 14.69 9.92 14.7C9.92 14.7 9.91 14.7 9.91 14.71C9.91 14.71 9.9 14.72 9.9 14.72C9.9 14.72 9.89 14.73 9.89 14.73C9.89 14.73 9.88 14.74 9.88 14.74C9.88 14.75 9.87 14.75 9.87 14.75C9.87 14.76 9.86 14.76 9.86 14.77L9.86 14.77C9.48 15.22 9.11 15.67 8.76 16.13C8.75 16.14 8.74 16.14 8.74 16.15L24.54 28.41C24.75 28.14 24.97 27.87 25.2 27.6L10 14.6L10 14.6ZM7.55 17.76C7.5 17.84 7.44 17.91 7.39 17.99C7.39 17.99 7.39 17.99 7.39 17.99C7.38 18 7.38 18 7.38 18.01C7.37 18.01 7.37 18.02 7.37 18.02C7.37 18.02 7.36 18.03 7.36 18.03C7.04 18.49 6.74 18.95 6.44 19.42L23.34 30.12C23.52 29.83 23.72 29.53 23.92 29.25L7.55 17.76L7.55 17.76ZM5.41 21.14C5.26 21.41 5.11 21.68 4.96 21.95C4.96 21.96 4.96 21.96 4.96 21.96C4.96 21.96 4.95 21.96 4.95 21.97C4.79 22.28 4.62 22.59 4.47 22.9L22.31 31.92C22.47 31.62 22.63 31.31 22.8 31.01L5.41 21.14L5.41 21.14ZM3.61 24.71C3.54 24.86 3.47 25.01 3.41 25.16L3.4 25.16C3.4 25.18 3.39 25.2 3.38 25.22L3.38 25.22C3.37 25.24 3.36 25.26 3.36 25.28L3.36 25.28C3.18 25.7 3 26.12 2.84 26.55L21.47 33.81C21.59 33.49 21.73 33.17 21.87 32.86L3.61 24.71L3.61 24.71ZM2.15 28.43C2.06 28.7 1.98 28.97 1.89 29.24C1.89 29.24 1.89 29.24 1.89 29.25C1.89 29.25 1.89 29.26 1.88 29.27C1.88 29.27 1.88 29.27 1.88 29.28C1.88 29.28 1.88 29.29 1.88 29.3C1.87 29.3 1.87 29.3 1.87 29.31C1.87 29.31 1.87 29.32 1.87 29.33C1.86 29.33 1.86 29.33 1.86 29.34C1.86 29.34 1.86 29.35 1.86 29.36C1.86 29.36 1.85 29.36 1.85 29.37C1.85 29.37 1.85 29.38 1.85 29.39C1.85 29.39 1.85 29.4 1.85 29.4C1.84 29.4 1.84 29.41 1.84 29.42C1.84 29.42 1.84 29.43 1.84 29.43C1.83 29.43 1.83 29.44 1.83 29.45C1.83 29.45 1.83 29.46 1.83 29.46C1.82 29.47 1.82 29.47 1.82 29.48C1.82 29.48 1.82 29.49 1.82 29.49C1.82 29.5 1.81 29.51 1.81 29.51C1.81 29.51 1.81 29.52 1.81 29.52C1.81 29.53 1.8 29.53 1.8 29.54C1.8 29.54 1.8 29.55 1.8 29.55C1.8 29.56 1.8 29.57 1.79 29.57C1.79 29.57 1.79 29.58 1.79 29.58C1.79 29.59 1.79 29.59 1.78 29.6C1.78 29.6 1.78 29.61 1.78 29.61C1.78 29.62 1.78 29.63 1.78 29.63C1.78 29.63 1.77 29.64 1.77 29.64C1.77 29.65 1.77 29.66 1.77 29.66C1.77 29.66 1.77 29.67 1.77 29.67C1.76 29.68 1.76 29.69 1.76 29.69C1.76 29.69 1.76 29.7 1.76 29.7C1.75 29.71 1.75 29.72 1.75 29.72C1.75 29.72 1.75 29.73 1.75 29.73C1.74 29.74 1.74 29.74 1.74 29.75C1.74 29.76 1.74 29.76 1.74 29.76C1.74 29.77 1.73 29.77 1.73 29.78C1.73 29.79 1.73 29.79 1.73 29.79C1.68 29.97 1.62 30.15 1.57 30.34L20.82 35.77C20.91 35.44 21.01 35.11 21.12 34.78L2.15 28.43L2.15 28.43ZM1.07 32.28C0.95 32.81 0.84 33.34 0.73 33.87C0.71 34 0.69 34.12 0.67 34.24L20.35 37.79C20.41 37.45 20.48 37.11 20.55 36.78L1.07 32.28L1.07 32.28ZM0.36 36.22C0.3 36.64 0.25 37.07 0.21 37.5C0.21 37.5 0.21 37.5 0.21 37.51C0.21 37.51 0.21 37.52 0.21 37.53C0.21 37.53 0.21 37.54 0.21 37.54C0.21 37.55 0.2 37.55 0.2 37.56C0.2 37.56 0.2 37.57 0.2 37.58C0.2 37.58 0.2 37.58 0.2 37.59C0.2 37.59 0.2 37.6 0.2 37.61L0.2 37.61C0.18 37.81 0.16 38.01 0.15 38.2L20.08 39.86C20.11 39.51 20.15 39.16 20.19 38.82L0.36 36.22L0.36 36.22ZM0.03 40.2C0.01 40.52 0.01 40.84 0 41.16C0 41.16 0 41.16 0 41.17C0 41.18 0 41.19 0 41.2C0 41.2 0 41.2 0 41.2C0 41.22 0 41.24 0 41.26C0 41.26 0 41.26 0 41.27C0 41.28 0 41.28 0 41.29C0 41.3 0 41.3 0 41.31C0 41.32 0 41.33 0 41.34C0 41.35 0 41.36 0 41.37C0 41.37 0 41.38 0 41.39C0 41.39 0 41.4 0 41.41C0 41.42 0 41.42 0 41.43C0 41.44 0 41.45 0 41.46C0 41.46 0 41.47 0 41.48C0 41.49 0 41.5 0 41.51C0 41.51 0 41.52 0 41.52C0 41.53 0 41.54 0 41.55C0 41.56 0 41.56 0 41.57C0 41.58 0 41.59 0 41.61C0 41.61 0 41.61 0 41.62C0 41.63 0 41.64 0 41.65C0 41.65 0 41.66 0 41.66C0 41.68 0 41.69 0 41.7L0 41.7L0 41.7C0 41.71 0 41.72 0 41.74C0 41.74 0 41.75 0 41.75C0 41.76 0 41.76 0 41.77C0 41.78 0 41.79 0 41.8L0 41.8C0 41.93 0 42.07 0.01 42.2L20 41.97L20 41.7C20 41.44 20 41.17 20.01 40.91L0.03 40.2L0.03 40.2ZM20.04 43.02L0.07 44.2C0.11 44.77 0.15 45.34 0.21 45.9C0.21 45.9 0.21 45.9 0.21 45.9C0.21 45.91 0.21 45.92 0.21 45.93C0.21 45.93 0.21 45.93 0.21 45.94C0.21 45.94 0.21 45.95 0.21 45.96C0.21 45.96 0.22 45.97 0.22 45.97C0.22 45.98 0.22 45.98 0.22 45.98C0.22 45.99 0.22 46 0.22 46.01C0.22 46.01 0.22 46.01 0.22 46.01C0.22 46.07 0.23 46.13 0.24 46.19L20.12 44.06C20.09 43.72 20.06 43.37 20.04 43.02L20.04 43.02ZM20.26 45.09L0.5 48.17C0.5 48.19 0.5 48.2 0.51 48.21C0.51 48.21 0.51 48.22 0.51 48.22C0.51 48.23 0.51 48.23 0.51 48.24C0.51 48.25 0.51 48.25 0.51 48.26C0.51 48.26 0.51 48.27 0.51 48.27C0.52 48.28 0.52 48.29 0.52 48.3C0.52 48.3 0.52 48.3 0.52 48.3C0.6 48.83 0.7 49.35 0.8 49.87C0.8 49.87 0.8 49.87 0.8 49.87C0.8 49.88 0.8 49.89 0.8 49.89C0.8 49.9 0.81 49.9 0.81 49.91C0.81 49.91 0.81 49.92 0.81 49.92C0.81 49.93 0.81 49.94 0.81 49.94C0.81 49.94 0.81 49.95 0.81 49.95C0.81 49.96 0.82 49.97 0.82 49.98C0.82 49.98 0.82 49.98 0.82 49.98C0.83 50.03 0.84 50.09 0.85 50.14L20.44 46.12C20.38 45.78 20.31 45.44 20.26 45.09L20.26 45.09ZM20.68 47.12L1.3 52.09C1.47 52.74 1.65 53.38 1.85 54.02L20.96 48.12C20.86 47.79 20.76 47.45 20.68 47.12L20.68 47.12ZM21.29 49.09L2.48 55.91C2.71 56.54 2.96 57.16 3.21 57.78L21.66 50.06C21.53 49.74 21.4 49.42 21.29 49.09L21.29 49.09ZM22.09 51L4.03 59.6C4.06 59.67 4.1 59.75 4.13 59.82C4.13 59.82 4.13 59.83 4.14 59.83C4.14 59.83 4.14 59.84 4.14 59.84C4.14 59.85 4.15 59.85 4.15 59.86C4.15 59.86 4.15 59.86 4.15 59.86C4.33 60.23 4.51 60.59 4.7 60.96L4.7 60.96C4.71 60.97 4.71 60.98 4.72 60.98C4.72 60.98 4.72 60.99 4.72 60.99C4.72 60.99 4.73 61 4.73 61.01C4.73 61.01 4.73 61.02 4.74 61.02C4.74 61.02 4.74 61.03 4.74 61.03C4.75 61.04 4.75 61.04 4.75 61.05C4.75 61.05 4.75 61.05 4.76 61.06C4.81 61.17 4.87 61.28 4.93 61.39L22.55 51.93C22.39 51.62 22.23 51.31 22.09 51L22.09 51ZM23.07 52.83L5.92 63.13C6.02 63.29 6.11 63.45 6.21 63.6L6.21 63.61C6.21 63.61 6.22 63.62 6.22 63.63C6.23 63.63 6.23 63.63 6.23 63.63C6.23 63.64 6.23 63.64 6.24 63.65C6.24 63.65 6.24 63.66 6.25 63.66C6.25 63.66 6.25 63.66 6.25 63.67C6.49 64.05 6.74 64.44 6.99 64.81L23.62 53.71C23.43 53.42 23.24 53.13 23.07 52.83L23.07 52.83ZM24.22 54.56L8.14 66.45C8.21 66.55 8.29 66.65 8.36 66.75L8.36 66.75C8.37 66.76 8.38 66.77 8.38 66.77L8.38 66.78C8.39 66.78 8.39 66.79 8.4 66.8C8.4 66.8 8.4 66.8 8.4 66.8C8.41 66.81 8.41 66.82 8.42 66.82C8.42 66.82 8.42 66.82 8.42 66.83C8.43 66.83 8.43 66.84 8.44 66.85C8.44 66.85 8.44 66.85 8.44 66.85C8.45 66.86 8.45 66.86 8.46 66.87C8.46 66.87 8.46 66.88 8.46 66.88C8.47 66.88 8.47 66.89 8.47 66.89C8.48 66.9 8.48 66.9 8.48 66.9C8.48 66.91 8.49 66.91 8.49 66.92C8.49 66.92 8.5 66.93 8.5 66.93C8.5 66.93 8.51 66.94 8.51 66.94C8.51 66.95 8.52 66.95 8.52 66.96C8.52 66.96 8.53 66.96 8.53 66.97C8.53 66.97 8.53 66.98 8.54 66.98C8.54 66.99 8.54 66.99 8.55 66.99C8.55 67 8.56 67 8.56 67.01C8.56 67.01 8.56 67.02 8.57 67.02C8.57 67.02 8.58 67.03 8.58 67.04C8.58 67.04 8.58 67.04 8.59 67.04C8.59 67.05 8.6 67.06 8.6 67.06C8.6 67.06 8.6 67.07 8.6 67.07C8.61 67.07 8.61 67.08 8.62 67.09C8.62 67.09 8.62 67.09 8.62 67.09C8.63 67.1 8.63 67.11 8.64 67.11C8.64 67.11 8.64 67.11 8.64 67.12C8.65 67.12 8.65 67.13 8.66 67.14C8.66 67.14 8.66 67.14 8.66 67.14C8.89 67.44 9.13 67.74 9.36 68.03L24.86 55.39C24.64 55.12 24.43 54.84 24.22 54.56L24.22 54.56ZM25.54 56.18L10.67 69.55C11.11 70.04 11.57 70.53 12.04 71L26.26 56.94C26.02 56.7 25.77 56.44 25.54 56.18L25.54 56.18ZM27.01 57.67L13.48 72.39C13.73 72.62 13.98 72.85 14.24 73.08C14.24 73.08 14.24 73.08 14.24 73.08C14.25 73.08 14.25 73.09 14.26 73.09C14.26 73.09 14.26 73.1 14.27 73.1C14.27 73.1 14.27 73.1 14.28 73.11C14.28 73.11 14.29 73.12 14.29 73.12C14.29 73.12 14.29 73.12 14.3 73.12C14.3 73.13 14.31 73.13 14.32 73.14L14.32 73.14C14.54 73.33 14.76 73.52 14.98 73.71L27.8 58.36C27.53 58.14 27.27 57.91 27.01 57.67L27.01 57.67ZM28.62 59.01L16.55 74.95C16.85 75.19 17.16 75.42 17.48 75.64C17.71 75.8 17.94 75.97 18.17 76.12L29.46 59.62C29.18 59.42 28.89 59.22 28.62 59.01L28.62 59.01ZM30.34 60.19L19.85 77.21C19.88 77.23 19.91 77.25 19.95 77.28C19.95 77.28 19.95 77.28 19.95 77.28C19.96 77.28 19.97 77.29 19.97 77.29C19.98 77.29 19.98 77.29 19.98 77.3C19.99 77.3 19.99 77.3 20 77.3C20 77.31 20.01 77.31 20.01 77.31C20.02 77.32 20.02 77.32 20.02 77.32C20.52 77.62 21.03 77.92 21.54 78.2C21.54 78.2 21.54 78.2 21.54 78.2C21.55 78.21 21.55 78.21 21.56 78.21C21.56 78.21 21.57 78.22 21.57 78.22C21.57 78.22 21.57 78.22 21.57 78.22L31.24 60.71C30.93 60.54 30.63 60.37 30.34 60.19L30.34 60.19ZM32.16 61.19L23.35 79.14C23.46 79.2 23.57 79.25 23.68 79.31L23.68 79.31C23.69 79.31 23.7 79.32 23.71 79.32C23.71 79.32 23.71 79.32 23.71 79.32C23.72 79.33 23.73 79.33 23.73 79.33C23.74 79.33 23.74 79.34 23.75 79.34C23.75 79.34 23.76 79.34 23.76 79.34C23.77 79.35 23.77 79.35 23.78 79.35C23.78 79.35 23.78 79.36 23.79 79.36C23.79 79.36 23.8 79.36 23.81 79.37C23.81 79.37 23.81 79.37 23.82 79.37C23.82 79.37 23.83 79.38 23.84 79.38C23.84 79.38 23.84 79.38 23.85 79.38C23.85 79.39 23.86 79.39 23.87 79.39C23.87 79.39 23.87 79.4 23.87 79.4C23.88 79.4 23.89 79.4 23.9 79.41C23.9 79.41 23.9 79.41 23.9 79.41C24.32 79.61 24.74 79.8 25.16 79.98L33.1 61.62C32.78 61.49 32.46 61.34 32.16 61.19L32.16 61.19ZM34.05 62.01L27.02 80.73C27.64 80.96 28.27 81.18 28.91 81.39L35.03 62.35C34.7 62.24 34.38 62.13 34.05 62.01L34.05 62.01ZM36.02 62.64L30.82 81.96C30.9 81.98 30.98 82 31.06 82.02L31.07 82.02C31.07 82.02 31.08 82.02 31.09 82.03C31.09 82.03 31.09 82.03 31.1 82.03C31.11 82.03 31.11 82.03 31.12 82.03C31.12 82.03 31.13 82.04 31.13 82.04C31.14 82.04 31.14 82.04 31.15 82.04C31.16 82.04 31.16 82.04 31.16 82.04C31.17 82.04 31.17 82.05 31.18 82.05C31.19 82.05 31.19 82.05 31.2 82.05C31.2 82.05 31.21 82.05 31.21 82.06C31.22 82.06 31.23 82.06 31.23 82.06C31.23 82.06 31.24 82.06 31.24 82.06C31.25 82.06 31.26 82.07 31.26 82.07C31.27 82.07 31.27 82.07 31.27 82.07C31.77 82.2 32.26 82.32 32.77 82.43L37.03 62.88C36.69 62.81 36.35 62.73 36.02 62.64L36.02 62.64ZM38.04 63.08L34.73 82.81C35.23 82.89 35.74 82.97 36.24 83.03C36.4 83.05 36.55 83.07 36.71 83.09L39.07 63.23C38.73 63.19 38.38 63.14 38.04 63.08L38.04 63.08ZM40.11 63.33L38.7 83.28C38.84 83.29 38.97 83.3 39.11 83.3C39.11 83.3 39.12 83.31 39.12 83.31C39.13 83.31 39.13 83.31 39.14 83.31C39.15 83.31 39.15 83.31 39.16 83.31C39.16 83.31 39.17 83.31 39.17 83.31C39.18 83.31 39.19 83.31 39.19 83.31C39.2 83.31 39.2 83.31 39.2 83.31C39.52 83.33 39.84 83.34 40.16 83.35C40.16 83.35 40.16 83.35 40.17 83.35C40.17 83.35 40.18 83.35 40.19 83.36C40.19 83.36 40.2 83.36 40.2 83.36C40.21 83.36 40.21 83.36 40.22 83.36C40.22 83.36 40.23 83.36 40.24 83.36C40.24 83.36 40.24 83.36 40.25 83.36C40.26 83.36 40.26 83.36 40.27 83.36C40.27 83.36 40.28 83.36 40.28 83.36C40.42 83.36 40.56 83.37 40.7 83.37L41.16 63.37C40.81 63.37 40.46 63.35 40.11 63.33L40.11 63.33ZM43.27 63.33C42.93 63.35 42.57 63.37 42.22 63.38L42.7 83.37C42.89 83.37 43.07 83.36 43.26 83.36C43.28 83.36 43.3 83.35 43.32 83.35C43.32 83.35 43.32 83.35 43.33 83.35C43.33 83.35 43.34 83.35 43.35 83.35C43.35 83.35 43.35 83.35 43.36 83.35C43.37 83.35 43.38 83.35 43.39 83.35L43.39 83.35C43.78 83.33 44.18 83.31 44.57 83.29C44.57 83.29 44.57 83.29 44.57 83.29C44.59 83.29 44.61 83.29 44.63 83.28C44.63 83.28 44.63 83.28 44.63 83.28C44.64 83.28 44.65 83.28 44.66 83.28L44.67 83.28C44.68 83.28 44.69 83.28 44.7 83.28L44.7 83.28L43.27 63.33L43.27 63.33ZM45.34 63.08C45 63.14 44.66 63.19 44.31 63.23L46.69 83.09C47.3 83.02 47.91 82.93 48.52 82.83C48.52 82.83 48.52 82.83 48.52 82.83C48.53 82.83 48.54 82.83 48.55 82.82C48.55 82.82 48.55 82.82 48.56 82.82C48.56 82.82 48.57 82.82 48.58 82.82C48.58 82.82 48.59 82.82 48.59 82.82C48.6 82.82 48.6 82.81 48.61 82.81C48.61 82.81 48.62 82.81 48.62 82.81C48.63 82.81 48.64 82.81 48.64 82.81C48.65 82.81 48.65 82.81 48.66 82.81C48.66 82.81 48.66 82.81 48.66 82.8L45.34 63.08L45.34 63.08ZM47.37 62.64C47.04 62.73 46.7 62.81 46.36 62.88L50.63 82.42C50.7 82.41 50.78 82.39 50.85 82.38C50.85 82.38 50.85 82.38 50.85 82.38C50.86 82.37 50.87 82.37 50.88 82.37C50.88 82.37 50.89 82.37 50.89 82.37C50.9 82.37 50.9 82.36 50.91 82.36C50.92 82.36 50.92 82.36 50.93 82.36C50.93 82.36 50.94 82.36 50.94 82.36C50.95 82.35 50.95 82.35 50.96 82.35C50.96 82.35 50.97 82.35 50.97 82.35C50.98 82.35 50.99 82.35 50.99 82.34C51 82.34 51 82.34 51 82.34C51.01 82.34 51.02 82.34 51.03 82.34C51.03 82.34 51.03 82.34 51.03 82.34C51.04 82.33 51.05 82.33 51.06 82.33C51.06 82.33 51.06 82.33 51.06 82.33C51.31 82.27 51.56 82.21 51.82 82.15L51.82 82.15C51.83 82.15 51.84 82.14 51.84 82.14C51.84 82.14 51.85 82.14 51.85 82.14C51.86 82.14 51.87 82.14 51.87 82.13C51.88 82.13 51.88 82.13 51.88 82.13C51.89 82.13 51.9 82.13 51.9 82.13C51.91 82.13 51.91 82.13 51.91 82.13C51.92 82.12 51.93 82.12 51.93 82.12C51.94 82.12 51.94 82.12 51.94 82.12C51.95 82.12 51.96 82.11 51.96 82.11C51.96 82.11 51.97 82.11 51.97 82.11C51.98 82.11 51.99 82.11 51.99 82.1C52 82.1 52 82.1 52 82.1C52.01 82.1 52.02 82.1 52.02 82.1C52.03 82.1 52.03 82.1 52.03 82.1C52.04 82.09 52.05 82.09 52.05 82.09C52.06 82.09 52.06 82.09 52.06 82.09C52.07 82.09 52.08 82.08 52.09 82.08C52.09 82.08 52.09 82.08 52.09 82.08C52.1 82.08 52.11 82.08 52.12 82.07C52.12 82.07 52.12 82.07 52.12 82.07C52.13 82.07 52.14 82.07 52.15 82.07C52.15 82.07 52.15 82.07 52.15 82.07C52.16 82.06 52.17 82.06 52.18 82.06L52.18 82.06C52.31 82.03 52.44 81.99 52.57 81.96L47.37 62.64L47.37 62.64ZM49.34 62.01C49.01 62.13 48.69 62.24 48.36 62.35L54.49 81.38C54.8 81.28 55.11 81.18 55.41 81.07C55.41 81.07 55.41 81.07 55.41 81.07C55.42 81.07 55.43 81.07 55.44 81.06C55.44 81.06 55.44 81.06 55.44 81.06C55.45 81.06 55.46 81.06 55.46 81.06C55.47 81.05 55.47 81.05 55.47 81.05C55.48 81.05 55.49 81.05 55.49 81.05C55.5 81.04 55.5 81.04 55.51 81.04C55.51 81.04 55.52 81.04 55.52 81.04C55.53 81.03 55.53 81.03 55.54 81.03C55.54 81.03 55.55 81.03 55.55 81.03C55.56 81.02 55.56 81.02 55.57 81.02C55.57 81.02 55.57 81.02 55.58 81.02C55.58 81.01 55.59 81.01 55.6 81.01C55.6 81.01 55.6 81.01 55.6 81.01C55.86 80.91 56.12 80.82 56.38 80.72L49.34 62.01L49.34 62.01ZM51.23 61.18C50.93 61.34 50.61 61.48 50.29 61.62L58.23 79.97C58.58 79.82 58.93 79.67 59.28 79.5C59.28 79.5 59.28 79.5 59.28 79.5C59.29 79.5 59.29 79.5 59.3 79.49C59.3 79.49 59.31 79.49 59.31 79.49C59.31 79.49 59.32 79.48 59.33 79.48C59.33 79.48 59.33 79.48 59.34 79.48C59.34 79.47 59.35 79.47 59.36 79.47C59.36 79.47 59.36 79.47 59.37 79.46C59.37 79.46 59.38 79.46 59.38 79.46C59.39 79.45 59.39 79.45 59.4 79.45C59.4 79.45 59.4 79.45 59.41 79.45C59.41 79.44 59.42 79.44 59.43 79.44C59.43 79.44 59.43 79.44 59.43 79.44C59.64 79.34 59.84 79.24 60.05 79.14L51.23 61.18L51.23 61.18ZM53.05 60.18C52.76 60.36 52.46 60.54 52.15 60.7L61.82 78.21C61.88 78.18 61.94 78.15 62 78.11C62 78.11 62.01 78.11 62.01 78.11C62.01 78.11 62.02 78.1 62.03 78.1C62.03 78.1 62.03 78.1 62.03 78.1C62.04 78.09 62.05 78.09 62.05 78.08C62.06 78.08 62.06 78.08 62.06 78.08C62.07 78.08 62.07 78.07 62.08 78.07C62.08 78.07 62.09 78.07 62.09 78.06C62.09 78.06 62.1 78.06 62.1 78.06C62.11 78.05 62.11 78.05 62.12 78.05C62.12 78.05 62.12 78.05 62.13 78.04C62.13 78.04 62.14 78.04 62.15 78.03C62.15 78.03 62.15 78.03 62.15 78.03C62.16 78.02 62.17 78.02 62.18 78.02L62.18 78.02C62.64 77.75 63.1 77.48 63.55 77.2L53.05 60.18L53.05 60.18ZM54.77 59C54.5 59.21 54.21 59.42 53.93 59.61L65.23 76.11C65.48 75.94 65.73 75.76 65.98 75.58C65.98 75.58 65.98 75.58 65.98 75.58C65.99 75.58 66 75.57 66 75.57C66.01 75.57 66.01 75.56 66.01 75.56C66.01 75.56 66.02 75.55 66.03 75.55C66.03 75.55 66.03 75.55 66.03 75.54C66.04 75.54 66.05 75.53 66.05 75.53C66.05 75.53 66.06 75.53 66.06 75.53C66.06 75.52 66.07 75.52 66.08 75.51C66.08 75.51 66.08 75.51 66.09 75.51C66.09 75.5 66.1 75.5 66.1 75.49C66.11 75.49 66.11 75.49 66.11 75.49C66.12 75.48 66.12 75.48 66.13 75.48C66.13 75.47 66.13 75.47 66.14 75.47C66.14 75.46 66.15 75.46 66.15 75.46C66.16 75.46 66.16 75.45 66.17 75.45C66.17 75.45 66.17 75.44 66.17 75.44C66.18 75.44 66.19 75.43 66.19 75.43C66.19 75.43 66.2 75.43 66.2 75.42C66.21 75.42 66.21 75.41 66.22 75.41C66.22 75.41 66.22 75.41 66.22 75.41C66.23 75.4 66.24 75.4 66.25 75.39C66.25 75.39 66.25 75.39 66.25 75.39C66.45 75.24 66.65 75.09 66.85 74.94L54.77 59L54.77 59ZM56.38 57.66C56.12 57.9 55.86 58.13 55.59 58.35L68.41 73.7C68.42 73.7 68.42 73.69 68.43 73.69C68.43 73.69 68.43 73.69 68.43 73.69C68.44 73.68 68.44 73.67 68.45 73.67C68.45 73.67 68.45 73.67 68.46 73.66C68.46 73.66 68.47 73.65 68.47 73.65C68.48 73.65 68.48 73.64 68.48 73.64C68.49 73.64 68.49 73.63 68.5 73.63C68.5 73.63 68.5 73.63 68.5 73.62C68.51 73.62 68.52 73.61 68.52 73.61C68.52 73.61 68.53 73.6 68.53 73.6C68.53 73.6 68.54 73.59 68.54 73.59C68.55 73.59 68.55 73.58 68.55 73.58C68.56 73.58 68.56 73.57 68.57 73.57C68.57 73.57 68.57 73.56 68.58 73.56C68.58 73.56 68.59 73.55 68.59 73.55C68.59 73.55 68.6 73.54 68.6 73.54C68.61 73.54 68.61 73.53 68.61 73.53C68.62 73.53 68.62 73.52 68.63 73.52C68.63 73.52 68.63 73.51 68.64 73.51C68.64 73.51 68.65 73.5 68.65 73.5C68.65 73.5 68.66 73.49 68.66 73.49C68.67 73.49 68.67 73.48 68.68 73.48C68.68 73.48 68.68 73.47 68.68 73.47C68.69 73.47 68.69 73.46 68.7 73.46C68.7 73.46 68.7 73.45 68.71 73.45C68.71 73.45 68.72 73.44 68.72 73.44C68.73 73.44 68.73 73.44 68.73 73.43C68.73 73.43 68.74 73.42 68.75 73.42C68.75 73.41 68.75 73.41 68.75 73.41C68.76 73.41 68.77 73.4 68.77 73.39L68.77 73.39C68.78 73.39 68.79 73.38 68.8 73.37L68.8 73.37C69.13 73.09 69.46 72.8 69.78 72.51C69.78 72.5 69.78 72.5 69.78 72.5C69.79 72.5 69.8 72.49 69.8 72.48C69.8 72.48 69.81 72.48 69.81 72.48C69.81 72.47 69.82 72.47 69.82 72.46C69.83 72.46 69.83 72.46 69.84 72.45C69.84 72.45 69.84 72.45 69.85 72.44C69.85 72.44 69.86 72.44 69.86 72.43C69.86 72.43 69.87 72.43 69.87 72.42C69.87 72.42 69.88 72.41 69.89 72.41C69.89 72.41 69.89 72.41 69.89 72.41C69.9 72.4 69.9 72.39 69.91 72.38L69.91 72.38C69.91 72.38 69.92 72.38 69.92 72.38L56.38 57.66L56.38 57.66ZM57.85 56.17C57.62 56.43 57.37 56.69 57.13 56.94L71.36 70.99C71.36 70.99 71.36 70.99 71.36 70.99C71.37 70.98 71.37 70.98 71.38 70.97C71.38 70.97 71.38 70.97 71.38 70.97C71.69 70.65 72 70.33 72.31 70C72.31 70 72.31 70 72.31 70C72.31 69.99 72.32 69.98 72.33 69.98C72.33 69.98 72.33 69.97 72.33 69.97C72.34 69.97 72.34 69.96 72.35 69.95C72.35 69.95 72.35 69.95 72.36 69.94C72.36 69.94 72.37 69.94 72.37 69.93C72.37 69.93 72.38 69.92 72.38 69.92C72.38 69.92 72.39 69.91 72.39 69.91C72.39 69.9 72.4 69.9 72.41 69.89L72.41 69.89C72.52 69.77 72.62 69.65 72.73 69.53L57.85 56.17L57.85 56.17ZM59.17 54.55C58.96 54.83 58.75 55.11 58.53 55.38L74.03 68.02C74.03 68.02 74.03 68.01 74.03 68.01C74.04 68.01 74.04 68 74.05 67.99C74.05 67.99 74.05 67.99 74.05 67.98C74.06 67.98 74.06 67.97 74.06 67.97C74.07 67.97 74.07 67.96 74.07 67.96C74.08 67.95 74.08 67.95 74.08 67.95C74.09 67.94 74.09 67.94 74.09 67.93C74.1 67.93 74.1 67.93 74.1 67.92C74.11 67.92 74.11 67.91 74.12 67.91C74.12 67.9 74.12 67.9 74.12 67.9C74.13 67.89 74.13 67.89 74.14 67.88C74.14 67.88 74.14 67.88 74.14 67.87C74.15 67.87 74.15 67.86 74.16 67.85C74.16 67.85 74.16 67.85 74.16 67.85C74.17 67.84 74.17 67.84 74.18 67.83L74.18 67.83C74.39 67.57 74.6 67.31 74.8 67.04L74.8 67.04C74.8 67.03 74.81 67.02 74.82 67.02C74.82 67.02 74.82 67.02 74.82 67.02C74.82 67.01 74.83 67 74.83 67C74.83 66.99 74.84 66.99 74.84 66.99C74.84 66.99 74.84 66.98 74.85 66.97C74.85 66.97 74.85 66.97 74.86 66.96C74.86 66.96 74.86 66.96 74.86 66.95C74.87 66.95 74.87 66.94 74.87 66.94C74.88 66.94 74.88 66.93 74.88 66.93C74.88 66.93 74.89 66.92 74.89 66.91C74.89 66.91 74.89 66.91 74.9 66.91C75.01 66.75 75.13 66.6 75.25 66.44L59.17 54.55L59.17 54.55ZM60.32 52.82C60.15 53.12 59.96 53.41 59.77 53.7L76.4 64.8C76.45 64.73 76.5 64.66 76.54 64.59C76.55 64.59 76.55 64.58 76.56 64.57C76.56 64.57 76.56 64.57 76.56 64.57C76.87 64.1 77.17 63.62 77.46 63.14L77.46 63.14C77.46 63.13 77.47 63.12 77.47 63.12C77.47 63.11 77.47 63.11 77.47 63.11L60.32 52.82L60.32 52.82ZM61.3 50.99C61.16 51.3 61 51.62 60.83 51.92L78.46 61.37C78.55 61.2 78.64 61.03 78.73 60.86C78.87 60.59 79.01 60.31 79.15 60.03C79.15 60.03 79.15 60.03 79.15 60.03C79.15 60.02 79.16 60.01 79.16 60C79.16 60 79.17 60 79.17 60C79.17 59.99 79.17 59.98 79.18 59.98C79.18 59.97 79.18 59.97 79.18 59.96C79.18 59.96 79.19 59.95 79.19 59.95C79.19 59.94 79.2 59.94 79.2 59.93C79.2 59.93 79.2 59.93 79.2 59.92C79.26 59.81 79.31 59.7 79.36 59.59L61.3 50.99L61.3 50.99ZM62.1 49.09C61.98 49.41 61.86 49.73 61.73 50.05L80.18 57.76C80.28 57.53 80.37 57.3 80.46 57.07C80.46 57.07 80.46 57.06 80.46 57.06C80.47 57.06 80.47 57.05 80.47 57.04C80.47 57.04 80.47 57.03 80.48 57.03C80.48 57.02 80.48 57.02 80.48 57.01C80.49 57.01 80.49 57 80.49 57C80.49 56.99 80.49 56.99 80.5 56.98C80.5 56.97 80.5 56.97 80.51 56.96C80.51 56.96 80.51 56.96 80.51 56.96C80.64 56.6 80.78 56.25 80.91 55.9L62.1 49.09L62.1 49.09ZM62.71 47.11C62.62 47.45 62.53 47.78 62.43 48.11L81.54 54C81.58 53.86 81.63 53.73 81.67 53.59L81.67 53.58C81.67 53.57 81.67 53.57 81.67 53.56C81.67 53.56 81.68 53.55 81.68 53.55C81.68 53.54 81.68 53.54 81.68 53.53C81.68 53.53 81.68 53.52 81.68 53.52C81.69 53.51 81.69 53.51 81.69 53.5C81.69 53.5 81.69 53.5 81.69 53.49C81.69 53.48 81.7 53.48 81.7 53.47C81.7 53.47 81.7 53.46 81.7 53.46C81.7 53.45 81.71 53.45 81.71 53.44C81.71 53.44 81.71 53.43 81.71 53.43C81.71 53.42 81.72 53.42 81.72 53.41C81.72 53.41 81.72 53.4 81.72 53.4C81.72 53.39 81.72 53.39 81.73 53.38C81.73 53.38 81.73 53.38 81.73 53.37C81.73 53.37 81.73 53.36 81.74 53.35C81.74 53.35 81.74 53.35 81.74 53.34C81.74 53.34 81.74 53.33 81.74 53.32L81.74 53.32C81.75 53.31 81.75 53.3 81.75 53.29L81.75 53.28C81.87 52.89 81.98 52.48 82.08 52.08L62.71 47.11L62.71 47.11ZM63.13 45.09C63.07 45.43 63.01 45.77 62.94 46.11L82.53 50.13C82.65 49.56 82.75 48.98 82.85 48.41C82.86 48.32 82.87 48.24 82.89 48.16L63.13 45.09L63.13 45.09ZM63.35 43.01C63.33 43.36 63.3 43.71 63.26 44.05L83.15 46.18C83.17 45.94 83.2 45.71 83.22 45.47C83.22 45.47 83.22 45.47 83.22 45.47C83.22 45.46 83.22 45.45 83.22 45.44C83.22 45.44 83.22 45.44 83.22 45.44C83.22 45.43 83.22 45.42 83.22 45.42C83.22 45.41 83.22 45.41 83.22 45.4C83.22 45.4 83.22 45.4 83.22 45.39C83.26 45.01 83.28 44.63 83.31 44.25C83.31 44.23 83.31 44.21 83.31 44.18L63.35 43.01L63.35 43.01ZM83.36 40.19L63.37 40.9C63.38 41.17 63.39 41.43 63.39 41.7L63.38 41.96L83.38 42.19C83.38 42.06 83.39 41.92 83.39 41.8C83.39 41.79 83.39 41.79 83.39 41.79C83.39 41.78 83.39 41.77 83.39 41.77C83.39 41.76 83.39 41.76 83.39 41.75C83.39 41.75 83.39 41.74 83.39 41.73C83.39 41.72 83.39 41.71 83.39 41.7L83.39 41.7L83.39 41.7C83.39 41.69 83.39 41.68 83.39 41.66C83.39 41.66 83.39 41.65 83.39 41.65C83.39 41.64 83.39 41.63 83.39 41.62C83.39 41.61 83.39 41.61 83.39 41.6C83.39 41.59 83.39 41.58 83.39 41.56C83.39 41.56 83.39 41.55 83.39 41.55C83.39 41.54 83.39 41.53 83.39 41.52C83.39 41.52 83.39 41.51 83.39 41.5C83.39 41.49 83.39 41.48 83.39 41.47C83.39 41.47 83.39 41.46 83.39 41.45C83.39 41.44 83.39 41.43 83.39 41.42C83.39 41.42 83.39 41.41 83.39 41.4C83.39 41.4 83.39 41.39 83.39 41.38C83.39 41.37 83.39 41.36 83.39 41.34C83.39 41.34 83.39 41.33 83.39 41.33C83.39 41.32 83.39 41.31 83.39 41.3C83.39 41.3 83.39 41.29 83.39 41.29C83.39 41.26 83.39 41.23 83.39 41.2C83.39 41.2 83.39 41.19 83.39 41.19C83.39 41.18 83.39 41.17 83.39 41.16C83.39 41.16 83.39 41.16 83.39 41.16C83.38 41.01 83.38 40.87 83.38 40.72L83.38 40.72C83.38 40.69 83.38 40.66 83.38 40.63C83.38 40.63 83.38 40.62 83.38 40.62C83.38 40.61 83.38 40.6 83.38 40.6C83.38 40.59 83.38 40.58 83.38 40.58C83.38 40.57 83.38 40.56 83.37 40.55C83.37 40.54 83.37 40.53 83.37 40.52C83.37 40.51 83.37 40.51 83.37 40.5C83.37 40.49 83.37 40.48 83.37 40.47C83.37 40.47 83.37 40.46 83.37 40.46C83.36 40.37 83.36 40.28 83.36 40.19L83.36 40.19ZM83.03 36.2L63.2 38.81C63.24 39.15 63.28 39.5 63.31 39.85L83.24 38.19C83.23 38.03 83.21 37.88 83.2 37.72C83.2 37.72 83.2 37.72 83.2 37.72C83.2 37.71 83.2 37.7 83.19 37.69C83.19 37.69 83.19 37.69 83.19 37.68C83.19 37.68 83.19 37.67 83.19 37.66C83.19 37.66 83.19 37.65 83.19 37.65C83.19 37.64 83.19 37.64 83.19 37.63C83.19 37.62 83.19 37.62 83.19 37.61C83.19 37.61 83.19 37.6 83.19 37.6C83.19 37.59 83.18 37.58 83.18 37.57L83.18 37.57C83.14 37.11 83.08 36.66 83.03 36.2L83.03 36.2ZM82.31 32.27L62.83 36.77C62.91 37.11 62.98 37.45 63.04 37.79L82.72 34.23C82.66 33.91 82.6 33.59 82.53 33.27L82.53 33.27C82.53 33.26 82.53 33.26 82.53 33.25C82.53 33.25 82.53 33.24 82.53 33.24C82.53 33.23 82.52 33.23 82.52 33.22C82.52 33.22 82.52 33.21 82.52 33.21C82.52 33.2 82.52 33.2 82.52 33.19C82.52 33.19 82.52 33.18 82.51 33.18C82.51 33.17 82.51 33.17 82.51 33.16C82.51 33.15 82.51 33.15 82.51 33.14C82.51 33.14 82.51 33.13 82.51 33.13C82.5 33.12 82.5 33.12 82.5 33.11C82.5 33.11 82.5 33.1 82.5 33.1C82.5 33.09 82.5 33.08 82.5 33.08C82.49 33.07 82.49 33.07 82.49 33.07C82.49 33.06 82.49 33.05 82.49 33.05C82.49 33.04 82.49 33.04 82.49 33.04C82.49 33.03 82.48 33.02 82.48 33.01C82.48 33.01 82.48 33.01 82.48 33.01C82.48 33 82.48 32.99 82.48 32.98C82.48 32.98 82.48 32.98 82.47 32.98C82.47 32.97 82.47 32.96 82.47 32.95C82.47 32.95 82.47 32.95 82.47 32.95C82.47 32.94 82.46 32.93 82.46 32.92C82.46 32.92 82.46 32.92 82.46 32.92C82.44 32.81 82.41 32.71 82.39 32.6C82.39 32.6 82.39 32.6 82.39 32.6C82.39 32.59 82.39 32.58 82.39 32.57C82.38 32.56 82.38 32.55 82.38 32.55C82.38 32.54 82.38 32.54 82.38 32.54C82.38 32.53 82.37 32.52 82.37 32.52C82.37 32.52 82.37 32.51 82.37 32.51C82.35 32.43 82.33 32.35 82.31 32.27L82.31 32.27ZM81.23 28.42L62.27 34.78C62.38 35.11 62.48 35.44 62.57 35.77L81.82 30.33C81.82 30.33 81.82 30.32 81.81 30.32C81.81 30.32 81.81 30.31 81.81 30.31C81.81 30.3 81.81 30.29 81.81 30.29C81.8 30.28 81.8 30.28 81.8 30.28C81.8 30.27 81.8 30.26 81.8 30.26C81.8 30.25 81.8 30.25 81.8 30.25C81.79 30.24 81.79 30.23 81.79 30.22L81.79 30.22C81.65 29.73 81.5 29.24 81.34 28.76C81.34 28.75 81.34 28.75 81.34 28.75C81.34 28.74 81.33 28.74 81.33 28.73C81.33 28.73 81.33 28.72 81.33 28.72C81.33 28.71 81.33 28.71 81.33 28.71C81.29 28.61 81.26 28.52 81.23 28.42L81.23 28.42ZM79.77 24.69L61.51 32.86C61.65 33.17 61.79 33.49 61.91 33.81L80.54 26.54C80.3 25.92 80.04 25.3 79.77 24.69L79.77 24.69ZM77.97 21.13L60.58 31C60.75 31.3 60.91 31.61 61.07 31.92L78.91 22.89C78.65 22.37 78.37 21.85 78.09 21.34L78.09 21.34C78.08 21.33 78.08 21.32 78.07 21.32C78.07 21.31 78.07 21.32 78.07 21.31C78.07 21.31 78.06 21.3 78.06 21.29C78.06 21.29 78.06 21.29 78.06 21.29C78.05 21.28 78.05 21.27 78.04 21.26C78.04 21.26 78.04 21.26 78.04 21.26C78.04 21.25 78.03 21.24 78.03 21.24C78.03 21.24 78.03 21.23 78.02 21.23C78.02 21.22 78.02 21.22 78.01 21.21C78.01 21.21 78.01 21.2 78.01 21.2C78 21.19 78 21.19 78 21.18C78 21.18 77.99 21.17 77.99 21.17C77.99 21.17 77.99 21.16 77.98 21.16C77.98 21.15 77.98 21.14 77.97 21.14C77.97 21.14 77.97 21.13 77.97 21.13C77.97 21.13 77.97 21.13 77.97 21.13L77.97 21.13ZM75.83 17.75L59.46 29.25C59.66 29.53 59.86 29.82 60.04 30.11L76.94 19.41C76.89 19.34 76.85 19.28 76.81 19.21C76.81 19.2 76.8 19.2 76.8 19.2C76.8 19.2 76.8 19.19 76.8 19.19C76.79 19.18 76.79 19.18 76.78 19.17L76.78 19.17C76.57 18.84 76.35 18.51 76.13 18.18C76.12 18.18 76.12 18.17 76.12 18.17C76.12 18.17 76.11 18.16 76.11 18.16C76.11 18.15 76.1 18.14 76.1 18.14C76.1 18.14 76.09 18.13 76.09 18.13C76 18 75.92 17.88 75.83 17.75L75.83 17.75ZM73.38 14.59L58.18 27.6C58.41 27.86 58.63 28.13 58.84 28.41L74.64 16.14C74.6 16.09 74.56 16.04 74.52 15.99L74.52 15.99C74.52 15.98 74.51 15.98 74.5 15.97C74.5 15.97 74.5 15.97 74.5 15.97C74.5 15.96 74.49 15.95 74.49 15.95C74.48 15.94 74.48 15.94 74.48 15.94C74.48 15.93 74.47 15.93 74.47 15.92C74.47 15.92 74.46 15.92 74.46 15.91C74.46 15.91 74.45 15.9 74.45 15.9C74.45 15.89 74.44 15.89 74.44 15.88C74.44 15.88 74.43 15.88 74.43 15.87C74.43 15.87 74.42 15.86 74.42 15.86C74.42 15.86 74.42 15.85 74.41 15.85C74.41 15.84 74.4 15.84 74.4 15.83C74.4 15.83 74.4 15.83 74.39 15.83C74.39 15.82 74.39 15.81 74.38 15.81C74.38 15.81 74.38 15.8 74.38 15.8C74.37 15.8 74.37 15.79 74.36 15.78C74.36 15.78 74.36 15.78 74.36 15.78C74.35 15.77 74.35 15.76 74.34 15.76C74.34 15.76 74.34 15.75 74.34 15.75C74.33 15.75 74.33 15.74 74.32 15.73C74.32 15.73 74.32 15.73 74.32 15.73C74.31 15.72 74.31 15.72 74.3 15.71C74.3 15.71 74.3 15.71 74.3 15.71C74.29 15.7 74.29 15.69 74.28 15.68C74.28 15.68 74.28 15.68 74.28 15.68C74.27 15.67 74.27 15.67 74.26 15.66C74.26 15.66 74.26 15.66 74.26 15.66C74.25 15.65 74.25 15.64 74.24 15.64C74.24 15.64 74.24 15.63 74.24 15.63C74.23 15.63 74.23 15.62 74.22 15.61C74.22 15.61 74.22 15.61 74.22 15.61C74.21 15.6 74.21 15.59 74.2 15.59C74.2 15.59 74.2 15.59 74.2 15.58C74.19 15.58 74.19 15.57 74.18 15.56C74.18 15.56 74.18 15.56 74.18 15.56C74.17 15.55 74.17 15.54 74.16 15.54C74.16 15.54 74.16 15.54 74.16 15.53C74.16 15.53 74.15 15.52 74.14 15.52C74.14 15.51 74.14 15.51 74.14 15.51C74.14 15.5 74.13 15.5 74.13 15.49C74.12 15.49 74.12 15.49 74.12 15.48C74.12 15.48 74.11 15.47 74.11 15.47C74.1 15.47 74.1 15.46 74.1 15.46C74.1 15.45 74.09 15.45 74.09 15.44C74.09 15.44 74.08 15.44 74.08 15.43C74.08 15.43 74.07 15.42 74.07 15.42C74.07 15.42 74.06 15.41 74.06 15.41C74.06 15.4 74.05 15.4 74.05 15.39C74.05 15.39 74.04 15.39 74.04 15.38C74.04 15.38 74.03 15.38 74.03 15.37C74.03 15.37 74.02 15.36 74.02 15.36C74.02 15.35 74.01 15.35 74.01 15.35C74.01 15.34 74 15.34 74 15.33C74 15.33 73.99 15.33 73.99 15.32C73.99 15.32 73.98 15.31 73.98 15.31C73.98 15.31 73.97 15.3 73.97 15.3C73.97 15.29 73.96 15.29 73.96 15.29C73.96 15.28 73.95 15.28 73.95 15.28C73.95 15.27 73.94 15.27 73.94 15.26C73.94 15.26 73.94 15.25 73.93 15.25C73.93 15.25 73.92 15.24 73.92 15.24C73.92 15.23 73.92 15.23 73.91 15.23C73.91 15.22 73.9 15.22 73.9 15.21C73.9 15.21 73.9 15.21 73.9 15.21C73.89 15.2 73.88 15.19 73.88 15.19C73.88 15.18 73.88 15.18 73.88 15.18C73.87 15.18 73.87 15.17 73.86 15.16C73.86 15.16 73.86 15.16 73.86 15.16C73.85 15.15 73.84 15.14 73.84 15.14C73.84 15.13 73.84 15.13 73.84 15.13C73.83 15.13 73.83 15.12 73.82 15.11C73.82 15.11 73.82 15.11 73.82 15.11C73.81 15.1 73.81 15.1 73.8 15.09C73.8 15.09 73.8 15.09 73.8 15.09C73.79 15.08 73.78 15.07 73.78 15.06C73.78 15.06 73.78 15.06 73.78 15.06C73.77 15.05 73.77 15.05 73.76 15.04C73.76 15.04 73.76 15.04 73.76 15.04C73.75 15.03 73.75 15.02 73.74 15.02C73.74 15.01 73.74 15.01 73.74 15.01C73.73 15.01 73.73 15 73.72 14.99C73.72 14.99 73.72 14.99 73.72 14.99C73.71 14.98 73.71 14.98 73.7 14.97C73.7 14.97 73.7 14.97 73.7 14.96C73.69 14.96 73.69 14.95 73.68 14.95C73.68 14.94 73.68 14.94 73.68 14.94C73.67 14.93 73.67 14.93 73.66 14.92C73.66 14.92 73.66 14.92 73.65 14.91C73.65 14.91 73.65 14.9 73.64 14.9C73.64 14.9 73.64 14.89 73.63 14.89C73.63 14.89 73.63 14.88 73.62 14.88C73.62 14.87 73.62 14.87 73.61 14.87C73.61 14.86 73.6 14.86 73.6 14.85C73.6 14.85 73.59 14.85 73.59 14.84C73.59 14.84 73.59 14.83 73.58 14.83C73.58 14.83 73.57 14.82 73.57 14.82C73.57 14.81 73.57 14.81 73.56 14.81C73.56 14.8 73.55 14.8 73.55 14.79C73.55 14.79 73.55 14.79 73.54 14.78C73.54 14.78 73.53 14.77 73.53 14.77C73.53 14.76 73.52 14.76 73.52 14.76C73.52 14.75 73.51 14.75 73.51 14.74C73.51 14.74 73.5 14.74 73.5 14.74C73.46 14.69 73.42 14.64 73.38 14.59L73.38 14.59ZM70.63 11.68L56.75 26.07C57 26.32 57.25 26.57 57.48 26.82L72.04 13.1C72.04 13.1 72.04 13.1 72.04 13.1C71.58 12.62 71.11 12.14 70.63 11.68L70.63 11.68ZM67.63 9.04L55.17 24.7C55.45 24.91 55.72 25.14 55.98 25.37L69.16 10.33C69.08 10.26 69 10.19 68.93 10.12C68.92 10.12 68.92 10.12 68.92 10.12C68.91 10.11 68.91 10.11 68.9 10.1C68.9 10.1 68.89 10.1 68.89 10.09C68.89 10.09 68.88 10.09 68.88 10.08C68.47 9.73 68.05 9.38 67.63 9.04L67.63 9.04ZM64.38 6.71L53.48 23.48C53.77 23.67 54.06 23.86 54.34 24.07L66.03 7.84C65.88 7.73 65.73 7.62 65.57 7.51C65.57 7.51 65.57 7.51 65.57 7.51C65.57 7.51 65.56 7.5 65.56 7.5C65.55 7.5 65.55 7.5 65.54 7.49C65.54 7.49 65.54 7.49 65.54 7.49C65.53 7.49 65.53 7.48 65.52 7.48C65.52 7.48 65.52 7.48 65.52 7.48C65.35 7.36 65.17 7.24 65 7.12C65 7.12 65 7.12 65 7.12C64.99 7.11 64.98 7.11 64.98 7.1C64.97 7.1 64.97 7.1 64.96 7.09C64.96 7.09 64.96 7.09 64.95 7.09C64.95 7.08 64.94 7.08 64.93 7.07C64.93 7.07 64.93 7.07 64.93 7.07C64.75 6.95 64.56 6.83 64.38 6.71L64.38 6.71ZM60.93 4.69L51.69 22.43C51.99 22.59 52.3 22.76 52.6 22.93L62.68 5.66C62.53 5.58 62.39 5.49 62.24 5.41L62.24 5.41C62.23 5.4 62.21 5.39 62.19 5.38L62.19 5.38C62.17 5.37 62.15 5.36 62.14 5.35L62.14 5.35C61.74 5.12 61.33 4.91 60.93 4.69L60.93 4.69ZM57.3 3.02L49.81 21.56C50.13 21.69 50.45 21.83 50.76 21.98L59.13 3.81C59.13 3.81 59.12 3.81 59.12 3.81C59.11 3.8 59.11 3.8 59.11 3.8C59.1 3.8 59.1 3.8 59.09 3.79C59.09 3.79 59.08 3.79 59.08 3.79C59.07 3.79 59.07 3.78 59.06 3.78C59.06 3.78 59.05 3.78 59.05 3.77C59.04 3.77 59.04 3.77 59.03 3.77C59.03 3.77 59.02 3.76 59.02 3.76C59.01 3.76 59.01 3.76 59 3.76C59 3.75 58.99 3.75 58.99 3.75C58.99 3.75 58.98 3.74 58.98 3.74C58.97 3.74 58.97 3.74 58.96 3.74C58.96 3.73 58.95 3.73 58.95 3.73C58.95 3.73 58.94 3.73 58.93 3.72C58.93 3.72 58.92 3.72 58.92 3.72C58.91 3.71 58.91 3.71 58.9 3.71C58.9 3.71 58.9 3.71 58.89 3.7C58.89 3.7 58.88 3.7 58.88 3.7C58.87 3.7 58.87 3.7 58.87 3.69C58.86 3.69 58.85 3.69 58.85 3.68C58.84 3.68 58.84 3.68 58.83 3.68C58.83 3.68 58.82 3.67 58.82 3.67C58.32 3.44 57.81 3.23 57.3 3.02L57.3 3.02ZM53.52 1.7L47.86 20.88C48.19 20.98 48.52 21.09 48.84 21.2L55.42 2.31C54.98 2.16 54.54 2.01 54.09 1.87C54.09 1.87 54.09 1.87 54.08 1.87C54.08 1.87 54.07 1.87 54.06 1.87C54.05 1.87 54.05 1.86 54.05 1.86C54.04 1.86 54.04 1.86 54.03 1.86C54.02 1.86 54.02 1.85 54.02 1.85C54.01 1.85 54 1.85 54 1.85C53.99 1.85 53.98 1.84 53.98 1.84C53.97 1.84 53.97 1.84 53.97 1.84C53.96 1.84 53.95 1.83 53.94 1.83C53.94 1.83 53.94 1.83 53.94 1.83C53.8 1.79 53.66 1.74 53.52 1.7L53.52 1.7ZM49.63 0.76L45.85 20.39C46.18 20.46 46.52 20.53 46.86 20.61L51.59 1.18C51.59 1.18 51.59 1.18 51.58 1.18C51.58 1.18 51.57 1.18 51.57 1.18C51.56 1.18 51.56 1.17 51.55 1.17C51.55 1.17 51.54 1.17 51.54 1.17C51.53 1.17 51.52 1.17 51.52 1.17C51.52 1.16 51.51 1.16 51.51 1.16C51.5 1.16 51.49 1.16 51.49 1.16C51.48 1.16 51.48 1.16 51.48 1.16C51.47 1.15 51.46 1.15 51.46 1.15C51.45 1.15 51.45 1.15 51.45 1.15C51.44 1.15 51.43 1.15 51.42 1.14C51.42 1.14 51.42 1.14 51.42 1.14C51.41 1.14 51.4 1.14 51.39 1.14C51.39 1.14 51.39 1.14 51.39 1.14C51.38 1.13 51.37 1.13 51.36 1.13L51.36 1.13C51.08 1.06 50.81 1 50.54 0.94C50.54 0.94 50.54 0.94 50.54 0.94C50.51 0.94 50.5 0.93 50.47 0.93C50.47 0.93 50.47 0.93 50.47 0.93C50.46 0.92 50.45 0.92 50.44 0.92C50.44 0.92 50.44 0.92 50.44 0.92C50.43 0.92 50.42 0.92 50.41 0.91C50.41 0.91 50.41 0.91 50.41 0.91C50.4 0.91 50.39 0.91 50.38 0.91C50.38 0.91 50.38 0.91 50.38 0.91C50.37 0.91 50.36 0.9 50.35 0.9C50.35 0.9 50.35 0.9 50.34 0.9C50.34 0.9 50.33 0.9 50.33 0.9C50.32 0.9 50.32 0.9 50.31 0.9C50.31 0.9 50.31 0.89 50.3 0.89C50.08 0.84 49.86 0.8 49.63 0.76L49.63 0.76ZM45.68 0.19L43.79 20.1C44.13 20.13 44.48 20.17 44.82 20.22L47.66 0.43C47.49 0.4 47.33 0.38 47.16 0.36L47.16 0.36C47.15 0.36 47.14 0.35 47.13 0.35C47.13 0.35 47.12 0.35 47.12 0.35C47.11 0.35 47.11 0.35 47.1 0.35C47.1 0.35 47.09 0.35 47.09 0.35C47.08 0.35 47.08 0.34 47.07 0.34C47.06 0.34 47.06 0.34 47.05 0.34C47.05 0.34 47.04 0.34 47.04 0.34C47.03 0.34 47.02 0.34 47.02 0.34C47.02 0.34 47.01 0.34 47.01 0.34C47 0.34 46.99 0.34 46.98 0.33C46.98 0.33 46.98 0.33 46.98 0.33C46.97 0.33 46.96 0.33 46.95 0.33L46.95 0.33C46.65 0.29 46.35 0.26 46.05 0.23L46.05 0.23C46.05 0.23 46.04 0.23 46.03 0.23C46.03 0.23 46.02 0.22 46.02 0.22C46.01 0.22 46.01 0.22 46 0.22C46 0.22 45.99 0.22 45.99 0.22C45.98 0.22 45.98 0.22 45.98 0.22C45.97 0.22 45.96 0.22 45.95 0.22C45.95 0.22 45.95 0.22 45.95 0.22C45.86 0.21 45.77 0.2 45.68 0.19L45.68 0.19ZM41.69 0L41.69 20C42.04 20 42.39 20.01 42.74 20.02L43.68 0.05C43.28 0.03 42.87 0.01 42.47 0.01L42.47 0.01C42.46 0.01 42.45 0.01 42.44 0.01C42.44 0.01 42.44 0.01 42.44 0.01C42.43 0.01 42.42 0.01 42.41 0.01C42.41 0.01 42.41 0.01 42.4 0.01C42.4 0.01 42.39 0.01 42.38 0.01C42.38 0.01 42.37 0.01 42.37 0.01C42.36 0.01 42.36 0.01 42.35 0.01C42.34 0.01 42.34 0.01 42.34 0.01C42.33 0.01 42.32 0.01 42.32 0.01C42.31 0.01 42.31 0.01 42.31 0.01C42.3 0.01 42.29 0.01 42.28 0.01C42.28 0.01 42.28 0.01 42.27 0.01C42.27 0.01 42.26 0.01 42.25 0.01C42.25 0.01 42.25 0.01 42.24 0.01C42.23 0.01 42.23 0.01 42.22 0.01C42.22 0.01 42.21 0.01 42.21 0.01C42.2 0.01 42.2 0.01 42.19 0.01C42.18 0.01 42.18 0.01 42.18 0.01C42.17 0.01 42.16 0.01 42.16 0.01C42.16 0.01 42.15 0.01 42.15 0.01C42.14 0.01 42.12 0.01 42.1 0.01C42.1 0.01 42.1 0.01 42.09 0.01C42.09 0.01 42.08 0.01 42.08 0.01C42.07 0.01 42.06 0.01 42.06 0.01C42.06 0.01 42.05 0.01 42.05 0.01C42.04 0.01 42.03 0.01 42.03 0.01C42.02 0.01 42.02 0.01 42.01 0.01C42.01 0.01 42 0.01 42 0.01C41.99 0.01 41.99 0.01 41.98 0.01C41.97 0.01 41.97 0.01 41.96 0.01C41.96 0.01 41.95 0.01 41.95 0.01C41.94 0.01 41.93 0.01 41.93 0.01C41.92 0.01 41.92 0.01 41.92 0.01C41.91 0.01 41.9 0.01 41.9 0.01C41.89 0.01 41.89 0.01 41.88 0.01C41.88 0.01 41.87 0.01 41.86 0.01C41.86 0.01 41.85 0.01 41.85 0.01C41.84 0.01 41.84 0.01 41.83 0.01C41.83 0.01 41.82 0.01 41.82 0.01C41.81 0.01 41.8 0.01 41.8 0.01C41.79 0.01 41.79 0.01 41.78 0.01C41.78 0.01 41.77 0.01 41.76 0.01C41.76 0.01 41.76 0.01 41.75 0.01C41.74 0.01 41.74 0.01 41.73 0.01C41.73 0.01 41.72 0.01 41.72 0.01C41.71 0 41.7 0 41.69 0L41.69 0Z" />
		</g>
		<g id="g32">
			<path id="path30" fill-rule="evenodd" class="shp3" d="M41.69 0C64.72 0 83.39 18.66 83.39 41.7C83.39 64.72 64.72 83.38 41.69 83.38C18.66 83.38 0 64.72 0 41.7C0 18.66 18.66 0 41.69 0ZM2 41.7C2 63.58 19.8 81.38 41.69 81.38C63.58 81.38 81.39 63.58 81.39 41.7C81.39 19.81 63.58 2 41.69 2C19.8 2 2 19.81 2 41.7Z" />
		</g>
		<g id="g36" style="opacity: 0.059">
		</g>
		<g id="g42">
			<path id="path38" class="shp4" d="M41.69 69.83C26.18 69.83 13.56 57.21 13.56 41.7C13.56 26.2 26.18 13.58 41.69 13.58C57.2 13.58 69.81 26.2 69.81 41.7C69.81 57.21 57.2 69.83 41.69 69.83Z" />
			<path id="path40" fill-rule="evenodd" class="shp4" d="M41.69 10.58C58.88 10.58 72.81 24.51 72.81 41.7C72.81 58.89 58.88 72.83 41.69 72.83C24.49 72.83 10.56 58.89 10.56 41.7C10.56 24.51 24.49 10.58 41.69 10.58ZM16.56 41.7C16.56 55.56 27.83 66.83 41.69 66.83C55.54 66.83 66.81 55.56 66.81 41.7C66.81 27.85 55.54 16.58 41.69 16.58C27.83 16.58 16.56 27.85 16.56 41.7Z" />
		</g>
	</g>
	<g id="g45">
	</g>
	<g id="g47">
	</g>
	<g id="g49">
	</g>
	<g id="g51">
	</g>
	<g id="g53">
	</g>
	<g id="g55">
	</g>
	<g id="g57">
	</g>
	<g id="g59">
	</g>
	<g id="g61">
	</g>
	<g id="g63">
	</g>
	<g id="g65">
	</g>
	<g id="g67">
	</g>
	<g id="g69">
	</g>
	<g id="g71">
	</g>
	<g id="g73">
	</g>
</svg>