<?xml version="1.0" encoding="UTF-8" standalone="no"?>
<svg
   version="1.1"
   id="Layer_1"
   x="0px"
   y="0px"
   width="67.40899658203125px"
   height="33.20600128173828px"
   viewBox="0 -0.00735019 67.409 33.2207"
   enable-background="new 0 0 67.409 33.206"
   xml:space="preserve"
   preserveAspectRatio="xMidYMid meet"
   sodipodi:docname="fazestart.svg"
   inkscape:version="1.2 (dc2aedaf03, 2022-05-15)"
   xmlns:inkscape="http://www.inkscape.org/namespaces/inkscape"
   xmlns:sodipodi="http://sodipodi.sourceforge.net/DTD/sodipodi-0.dtd"
   xmlns="http://www.w3.org/2000/svg"
   xmlns:svg="http://www.w3.org/2000/svg"><defs
   id="defs12406" /><sodipodi:namedview
   id="namedview12404"
   pagecolor="#ffffff"
   bordercolor="#000000"
   borderopacity="0.25"
   inkscape:showpageshadow="2"
   inkscape:pageopacity="0.0"
   inkscape:pagecheckerboard="0"
   inkscape:deskcolor="#d1d1d1"
   showgrid="false"
   inkscape:zoom="17.950126"
   inkscape:cx="33.788063"
   inkscape:cy="16.601555"
   inkscape:window-width="2560"
   inkscape:window-height="1377"
   inkscape:window-x="1912"
   inkscape:window-y="-8"
   inkscape:window-maximized="1"
   inkscape:current-layer="Layer_1" /><rect
   id="svgEditorBackground"
   x="0"
   y="0"
   width="67.40899658203125"
   height="33.20600128173828"
   style="fill:none;stroke:none;" />
<g
   id="Menu_Pressed">
	<path
   fill="#F5F5F5"
   stroke="#FFFFFF"
   stroke-miterlimit="10"
   d="M66.909,16.603c0,8.902999999999999,-7.228999999999999,16.103,-16.102000000000004,16.103c-8.900999999999996,0,-16.102000000000004,-7.199999999999999,-16.102000000000004,-16.103c0,-8.896,7.200000000000003,-16.103,16.102000000000004,-16.103c8.873999999999995,0,16.102000000000004,7.207,16.102000000000004,16.103Z"
   id="path12353" />
	<g
   id="g12361">
		<rect
   x="43.612009212118984"
   y="11.978001016536481"
   width="14.361"
   height="1.552"
   style="fill:#eb0a0f;fill-opacity:1"
   id="rect12355" />
		<rect
   x="43.612"
   y="15.896"
   width="14.361"
   height="1.552"
   style="fill:#eb0a0f;fill-opacity:1"
   id="rect12357" />
		<rect
   x="43.612"
   y="19.706"
   width="14.361"
   height="1.532"
   style="fill:#eb0a0f;fill-opacity:1"
   id="rect12359" />
	</g>
</g>
<g
   id="Switcher_PRessed">
	<path
   fill="#F5F5F5"
   stroke="#FFFFFF"
   stroke-miterlimit="10"
   d="M32.706,16.603c0,8.902999999999999,-7.2010000000000005,16.103,-16.103,16.103c-8.872,0,-16.103,-7.199999999999999,-16.103,-16.103c0,-8.896,7.231,-16.103,16.103,-16.103c8.901999999999997,0,16.103,7.207,16.103,16.103Z"
   id="path12364" />
	<g
   id="g12370">
		<polygon
   points="14.087,16.502 11.056,16.502 11.056,12.718 16.528,12.718 16.528,14.039 18.328,14.039     18.328,10.979 9.437,10.979 9.437,18.369 14.087,18.369   "
   style="fill:#eb0a0f;fill-opacity:1"
   id="polygon12366" />
		<path
   d="M14.837,14.663v7.584h8.96v-7.584h-8.96ZM21.998000000000005,20.447h-5.469999999999999v-3.9450000000000003h5.469999999999999v3.9450000000000003Z"
   style="fill:#eb0a0f;fill-opacity:1"
   id="path12368" />
	</g>
</g>
<g
   id="g12373">
</g>
<g
   id="g12375">
</g>
<g
   id="g12377">
</g>
<g
   id="g12379">
</g>
<g
   id="g12381">
</g>
<g
   id="g12383">
</g>
<g
   id="g12385">
</g>
<g
   id="g12387">
</g>
<g
   id="g12389">
</g>
<g
   id="g12391">
</g>
<g
   id="g12393">
</g>
<g
   id="g12395">
</g>
<g
   id="g12397">
</g>
<g
   id="g12399">
</g>
<g
   id="g12401">
</g>
</svg>
