<?xml version="1.0" encoding="UTF-8" standalone="no"?>
<svg
   xmlns:dc="http://purl.org/dc/elements/1.1/"
   xmlns:cc="http://creativecommons.org/ns#"
   xmlns:rdf="http://www.w3.org/1999/02/22-rdf-syntax-ns#"
   xmlns:svg="http://www.w3.org/2000/svg"
   xmlns="http://www.w3.org/2000/svg"
   xmlns:sodipodi="http://sodipodi.sourceforge.net/DTD/sodipodi-0.dtd"
   xmlns:inkscape="http://www.inkscape.org/namespaces/inkscape"
   version="1.1"
   id="Layer_1"
   x="0px"
   y="0px"
   width="67.40899658203125px"
   height="33.20600128173828px"
   viewBox="0 -0.00735019 67.409 33.2207"
   enable-background="new 0 0 67.409 33.206"
   xml:space="preserve"
   preserveAspectRatio="xMidYMid meet"
   sodipodi:docname="g2start.svg"
   inkscape:version="0.92.4 (5da689c313, 2019-01-14)"><metadata
   id="metadata1946"><rdf:RDF><cc:Work
       rdf:about=""><dc:format>image/svg+xml</dc:format><dc:type
         rdf:resource="http://purl.org/dc/dcmitype/StillImage" /><dc:title></dc:title></cc:Work></rdf:RDF></metadata><defs
   id="defs1944" /><sodipodi:namedview
   pagecolor="#ffffff"
   bordercolor="#666666"
   borderopacity="1"
   objecttolerance="10"
   gridtolerance="10"
   guidetolerance="10"
   inkscape:pageopacity="0"
   inkscape:pageshadow="2"
   inkscape:window-width="1920"
   inkscape:window-height="1017"
   id="namedview1942"
   showgrid="false"
   inkscape:zoom="4.2724267"
   inkscape:cx="33.704498"
   inkscape:cy="16.603001"
   inkscape:window-x="1912"
   inkscape:window-y="-8"
   inkscape:window-maximized="1"
   inkscape:current-layer="Layer_1" /><rect
   id="svgEditorBackground"
   x="0"
   y="0"
   width="67.40899658203125"
   height="33.20600128173828"
   style="fill:none;stroke:none;" />
<g
   id="Menu_Pressed">
	<path
   fill="#F5F5F5"
   stroke="#FFFFFF"
   stroke-miterlimit="10"
   d="M66.909,16.603c0,8.902999999999999,-7.228999999999999,16.103,-16.102000000000004,16.103c-8.900999999999996,0,-16.102000000000004,-7.199999999999999,-16.102000000000004,-16.103c0,-8.896,7.200000000000003,-16.103,16.102000000000004,-16.103c8.873999999999995,0,16.102000000000004,7.207,16.102000000000004,16.103Z"
   id="path1891" />
	<g
   id="g1899">
		<rect
   x="43.612009212118984"
   y="11.978001016536481"
   width="14.361"
   height="1.552"
   style="fill:#000008;fill-opacity:1"
   id="rect1893" />
		<rect
   x="43.612"
   y="15.896"
   width="14.361"
   height="1.552"
   style="fill:#000000;fill-opacity:1"
   id="rect1895" />
		<rect
   x="43.612"
   y="19.706"
   width="14.361"
   height="1.532"
   style="fill:#000000;fill-opacity:1"
   id="rect1897" />
	</g>
</g>
<g
   id="Switcher_PRessed">
	<path
   fill="#F5F5F5"
   stroke="#FFFFFF"
   stroke-miterlimit="10"
   d="M32.706,16.603c0,8.902999999999999,-7.2010000000000005,16.103,-16.103,16.103c-8.872,0,-16.103,-7.199999999999999,-16.103,-16.103c0,-8.896,7.231,-16.103,16.103,-16.103c8.901999999999997,0,16.103,7.207,16.103,16.103Z"
   id="path1902" />
	<g
   id="g1908">
		<polygon
   points="14.087,16.502 11.056,16.502 11.056,12.718 16.528,12.718 16.528,14.039 18.328,14.039     18.328,10.979 9.437,10.979 9.437,18.369 14.087,18.369   "
   style="fill:#000000;fill-opacity:1"
   id="polygon1904" />
		<path
   d="M14.837,14.663v7.584h8.96v-7.584h-8.96ZM21.998000000000005,20.447h-5.469999999999999v-3.9450000000000003h5.469999999999999v3.9450000000000003Z"
   style="fill:#000015;fill-opacity:1"
   id="path1906" />
	</g>
</g>
<g
   id="g1911">
</g>
<g
   id="g1913">
</g>
<g
   id="g1915">
</g>
<g
   id="g1917">
</g>
<g
   id="g1919">
</g>
<g
   id="g1921">
</g>
<g
   id="g1923">
</g>
<g
   id="g1925">
</g>
<g
   id="g1927">
</g>
<g
   id="g1929">
</g>
<g
   id="g1931">
</g>
<g
   id="g1933">
</g>
<g
   id="g1935">
</g>
<g
   id="g1937">
</g>
<g
   id="g1939">
</g>
</svg>